%TF.GenerationSoftware,KiCad,Pcbnew,(6.0.0)*%
%TF.CreationDate,2022-08-06T01:14:48-04:00*%
%TF.ProjectId,security module,73656375-7269-4747-9920-6d6f64756c65,rev?*%
%TF.SameCoordinates,Original*%
%TF.FileFunction,Soldermask,Bot*%
%TF.FilePolarity,Negative*%
%FSLAX46Y46*%
G04 Gerber Fmt 4.6, Leading zero omitted, Abs format (unit mm)*
G04 Created by KiCad (PCBNEW (6.0.0)) date 2022-08-06 01:14:48*
%MOMM*%
%LPD*%
G01*
G04 APERTURE LIST*
G04 Aperture macros list*
%AMRoundRect*
0 Rectangle with rounded corners*
0 $1 Rounding radius*
0 $2 $3 $4 $5 $6 $7 $8 $9 X,Y pos of 4 corners*
0 Add a 4 corners polygon primitive as box body*
4,1,4,$2,$3,$4,$5,$6,$7,$8,$9,$2,$3,0*
0 Add four circle primitives for the rounded corners*
1,1,$1+$1,$2,$3*
1,1,$1+$1,$4,$5*
1,1,$1+$1,$6,$7*
1,1,$1+$1,$8,$9*
0 Add four rect primitives between the rounded corners*
20,1,$1+$1,$2,$3,$4,$5,0*
20,1,$1+$1,$4,$5,$6,$7,0*
20,1,$1+$1,$6,$7,$8,$9,0*
20,1,$1+$1,$8,$9,$2,$3,0*%
%AMFreePoly0*
4,1,25,0.694719,1.352196,0.706842,1.341842,1.341842,0.706842,1.370349,0.650894,1.371600,0.635000,1.371600,-0.635000,1.352196,-0.694719,1.341842,-0.706842,0.706842,-1.341842,0.650894,-1.370349,0.635000,-1.371600,-0.635000,-1.371600,-0.694719,-1.352196,-0.706842,-1.341842,-1.341842,-0.706842,-1.370349,-0.650894,-1.371600,-0.635000,-1.371600,0.635000,-1.352196,0.694719,-1.341842,0.706842,
-0.706842,1.341842,-0.650894,1.370349,-0.635000,1.371600,0.635000,1.371600,0.694719,1.352196,0.694719,1.352196,$1*%
G04 Aperture macros list end*
%ADD10RoundRect,0.250000X0.600000X0.600000X-0.600000X0.600000X-0.600000X-0.600000X0.600000X-0.600000X0*%
%ADD11C,1.700000*%
%ADD12FreePoly0,180.000000*%
%ADD13C,3.200000*%
%ADD14RoundRect,0.101600X-0.700000X-0.700000X0.700000X-0.700000X0.700000X0.700000X-0.700000X0.700000X0*%
%ADD15C,1.603200*%
%ADD16C,2.603200*%
%ADD17RoundRect,0.200000X-0.275000X0.200000X-0.275000X-0.200000X0.275000X-0.200000X0.275000X0.200000X0*%
%ADD18RoundRect,0.150000X0.825000X0.150000X-0.825000X0.150000X-0.825000X-0.150000X0.825000X-0.150000X0*%
%ADD19RoundRect,0.225000X0.225000X0.250000X-0.225000X0.250000X-0.225000X-0.250000X0.225000X-0.250000X0*%
%ADD20R,0.500000X0.800000*%
%ADD21R,0.400000X0.800000*%
%ADD22RoundRect,0.225000X-0.250000X0.225000X-0.250000X-0.225000X0.250000X-0.225000X0.250000X0.225000X0*%
%ADD23RoundRect,0.200000X0.275000X-0.200000X0.275000X0.200000X-0.275000X0.200000X-0.275000X-0.200000X0*%
%ADD24RoundRect,0.150000X-0.150000X-0.700000X0.150000X-0.700000X0.150000X0.700000X-0.150000X0.700000X0*%
%ADD25RoundRect,0.250000X-0.250000X-1.100000X0.250000X-1.100000X0.250000X1.100000X-0.250000X1.100000X0*%
%ADD26R,0.800000X0.500000*%
%ADD27R,0.800000X0.400000*%
%ADD28C,0.756400*%
%ADD29C,0.800000*%
G04 APERTURE END LIST*
D10*
%TO.C,J1*%
X85050000Y-88600000D03*
D11*
X82510000Y-88600000D03*
X85050000Y-86060000D03*
X82510000Y-86060000D03*
X85050000Y-83520000D03*
X82510000Y-83520000D03*
%TD*%
D12*
%TO.C,J4*%
X69000000Y-25400000D03*
X64000000Y-25400000D03*
%TD*%
D10*
%TO.C,J2*%
X26950000Y-88600000D03*
D11*
X24410000Y-88600000D03*
X26950000Y-86060000D03*
X24410000Y-86060000D03*
X26950000Y-83520000D03*
X24410000Y-83520000D03*
%TD*%
D12*
%TO.C,J3*%
X45500000Y-25400000D03*
X40500000Y-25400000D03*
%TD*%
D13*
%TO.C,RJ45-1*%
X81379992Y-112989996D03*
X28039992Y-112989996D03*
D14*
X29309992Y-106639996D03*
D15*
X30579992Y-104099996D03*
X31849992Y-106639996D03*
X33119992Y-104099996D03*
X34389992Y-106639996D03*
X35659992Y-104099996D03*
X36929992Y-106639996D03*
X38199992Y-104099996D03*
X43279992Y-106639996D03*
X44549992Y-104099996D03*
X45819992Y-106639996D03*
X47089992Y-104099996D03*
X48359992Y-106639996D03*
X49629992Y-104099996D03*
X50899992Y-106639996D03*
X52169992Y-104099996D03*
X57249992Y-106639996D03*
X58519992Y-104099996D03*
X59789992Y-106639996D03*
X61059992Y-104099996D03*
X62329992Y-106639996D03*
X63599992Y-104099996D03*
X64869992Y-106639996D03*
X66139992Y-104099996D03*
X71219992Y-106639996D03*
X72489992Y-104099996D03*
X73759992Y-106639996D03*
X75029992Y-104099996D03*
X76299992Y-106639996D03*
X77569992Y-104099996D03*
X78839992Y-106639996D03*
X80109992Y-104099996D03*
X38199992Y-97499996D03*
X36929992Y-100039996D03*
X35659992Y-97499996D03*
X34389992Y-100039996D03*
X33119992Y-97499996D03*
X31849992Y-100039996D03*
X30579992Y-97499996D03*
X29309992Y-100039996D03*
X52169992Y-97499996D03*
X50899992Y-100039996D03*
X49629992Y-97499996D03*
X48359992Y-100039996D03*
X47089992Y-97499996D03*
X45819992Y-100039996D03*
X44549992Y-97499996D03*
X43279992Y-100039996D03*
X66139992Y-97499996D03*
X64869992Y-100039996D03*
X63599992Y-97499996D03*
X62329992Y-100039996D03*
X61059992Y-97499996D03*
X59789992Y-100039996D03*
X58519992Y-97499996D03*
X57249992Y-100039996D03*
X80109992Y-97499996D03*
X78839992Y-100039996D03*
X77569992Y-97499996D03*
X76299992Y-100039996D03*
X75029992Y-97499996D03*
X73759992Y-100039996D03*
X72489992Y-97499996D03*
X71219992Y-100039996D03*
D16*
X25914992Y-103839996D03*
X25249992Y-97499996D03*
X84169992Y-101559996D03*
X83504992Y-107139996D03*
X84169992Y-117559996D03*
X25249992Y-117559996D03*
%TD*%
D17*
%TO.C,R10*%
X52950000Y-69500000D03*
X52950000Y-71150000D03*
%TD*%
D18*
%TO.C,P4*%
X50925000Y-66690000D03*
X50925000Y-67960000D03*
X50925000Y-69230000D03*
X50925000Y-70500000D03*
X50925000Y-71770000D03*
X50925000Y-73040000D03*
X50925000Y-74310000D03*
X45975000Y-74310000D03*
X45975000Y-73040000D03*
X45975000Y-71770000D03*
X45975000Y-70500000D03*
X45975000Y-69230000D03*
X45975000Y-67960000D03*
X45975000Y-66690000D03*
%TD*%
D17*
%TO.C,R8*%
X52950000Y-86000000D03*
X52950000Y-87650000D03*
%TD*%
D19*
%TO.C,C19*%
X73225000Y-80000000D03*
X71675000Y-80000000D03*
%TD*%
D20*
%TO.C,RN17*%
X73650000Y-94400000D03*
D21*
X72850000Y-94400000D03*
X72050000Y-94400000D03*
D20*
X71250000Y-94400000D03*
X71250000Y-92600000D03*
D21*
X72050000Y-92600000D03*
X72850000Y-92600000D03*
D20*
X73650000Y-92600000D03*
%TD*%
%TO.C,RN13*%
X49650000Y-94400000D03*
D21*
X48850000Y-94400000D03*
X48050000Y-94400000D03*
D20*
X47250000Y-94400000D03*
X47250000Y-92600000D03*
D21*
X48050000Y-92600000D03*
X48850000Y-92600000D03*
D20*
X49650000Y-92600000D03*
%TD*%
D22*
%TO.C,C10*%
X43450000Y-88500000D03*
X43450000Y-90050000D03*
%TD*%
D23*
%TO.C,R17*%
X67450000Y-70325000D03*
X67450000Y-68675000D03*
%TD*%
D24*
%TO.C,J5*%
X76200000Y-27050000D03*
X77450000Y-27050000D03*
X78700000Y-27050000D03*
X79950000Y-27050000D03*
X81200000Y-27050000D03*
D25*
X74350000Y-23850000D03*
X83050000Y-23850000D03*
%TD*%
D22*
%TO.C,C7*%
X31450000Y-72000000D03*
X31450000Y-73550000D03*
%TD*%
D20*
%TO.C,RN14*%
X49650000Y-77900000D03*
D21*
X48850000Y-77900000D03*
X48050000Y-77900000D03*
D20*
X47250000Y-77900000D03*
X47250000Y-76100000D03*
D21*
X48050000Y-76100000D03*
X48850000Y-76100000D03*
D20*
X49650000Y-76100000D03*
%TD*%
D19*
%TO.C,C17*%
X61225000Y-63500000D03*
X59675000Y-63500000D03*
%TD*%
D23*
%TO.C,R11*%
X55450000Y-86825000D03*
X55450000Y-85175000D03*
%TD*%
D26*
%TO.C,RN9*%
X26050000Y-60700000D03*
D27*
X26050000Y-59900000D03*
X26050000Y-59100000D03*
D26*
X26050000Y-58300000D03*
X27850000Y-58300000D03*
D27*
X27850000Y-59100000D03*
X27850000Y-59900000D03*
D26*
X27850000Y-60700000D03*
%TD*%
D23*
%TO.C,R9*%
X43450000Y-70325000D03*
X43450000Y-68675000D03*
%TD*%
D26*
%TO.C,RN6*%
X84350000Y-53800000D03*
D27*
X84350000Y-54600000D03*
X84350000Y-55400000D03*
D26*
X84350000Y-56200000D03*
X82550000Y-56200000D03*
D27*
X82550000Y-55400000D03*
X82550000Y-54600000D03*
D26*
X82550000Y-53800000D03*
%TD*%
D20*
%TO.C,RN12*%
X37650000Y-77900000D03*
D21*
X36850000Y-77900000D03*
X36050000Y-77900000D03*
D20*
X35250000Y-77900000D03*
X35250000Y-76100000D03*
D21*
X36050000Y-76100000D03*
X36850000Y-76100000D03*
D20*
X37650000Y-76100000D03*
%TD*%
D26*
%TO.C,RN7*%
X26050000Y-56200000D03*
D27*
X26050000Y-55400000D03*
X26050000Y-54600000D03*
D26*
X26050000Y-53800000D03*
X27850000Y-53800000D03*
D27*
X27850000Y-54600000D03*
X27850000Y-55400000D03*
D26*
X27850000Y-56200000D03*
%TD*%
D22*
%TO.C,C20*%
X67450000Y-72000000D03*
X67450000Y-73550000D03*
%TD*%
D23*
%TO.C,R3*%
X31450000Y-86825000D03*
X31450000Y-85175000D03*
%TD*%
D18*
%TO.C,P2*%
X38925000Y-66690000D03*
X38925000Y-67960000D03*
X38925000Y-69230000D03*
X38925000Y-70500000D03*
X38925000Y-71770000D03*
X38925000Y-73040000D03*
X38925000Y-74310000D03*
X33975000Y-74310000D03*
X33975000Y-73040000D03*
X33975000Y-71770000D03*
X33975000Y-70500000D03*
X33975000Y-69230000D03*
X33975000Y-67960000D03*
X33975000Y-66690000D03*
%TD*%
D22*
%TO.C,C12*%
X43450000Y-72000000D03*
X43450000Y-73550000D03*
%TD*%
D19*
%TO.C,C8*%
X36275000Y-80000000D03*
X34725000Y-80000000D03*
%TD*%
D17*
%TO.C,R14*%
X64950000Y-69500000D03*
X64950000Y-71150000D03*
%TD*%
D18*
%TO.C,P6*%
X62925000Y-66690000D03*
X62925000Y-67960000D03*
X62925000Y-69230000D03*
X62925000Y-70500000D03*
X62925000Y-71770000D03*
X62925000Y-73040000D03*
X62925000Y-74310000D03*
X57975000Y-74310000D03*
X57975000Y-73040000D03*
X57975000Y-71770000D03*
X57975000Y-70500000D03*
X57975000Y-69230000D03*
X57975000Y-67960000D03*
X57975000Y-66690000D03*
%TD*%
D22*
%TO.C,C14*%
X55450000Y-88500000D03*
X55450000Y-90050000D03*
%TD*%
D18*
%TO.C,P5*%
X62925000Y-83190000D03*
X62925000Y-84460000D03*
X62925000Y-85730000D03*
X62925000Y-87000000D03*
X62925000Y-88270000D03*
X62925000Y-89540000D03*
X62925000Y-90810000D03*
X57975000Y-90810000D03*
X57975000Y-89540000D03*
X57975000Y-88270000D03*
X57975000Y-87000000D03*
X57975000Y-85730000D03*
X57975000Y-84460000D03*
X57975000Y-83190000D03*
%TD*%
D22*
%TO.C,C18*%
X67450000Y-88500000D03*
X67450000Y-90050000D03*
%TD*%
D20*
%TO.C,RN11*%
X37650000Y-94400000D03*
D21*
X36850000Y-94400000D03*
X36050000Y-94400000D03*
D20*
X35250000Y-94400000D03*
X35250000Y-92600000D03*
D21*
X36050000Y-92600000D03*
X36850000Y-92600000D03*
D20*
X37650000Y-92600000D03*
%TD*%
D23*
%TO.C,R15*%
X67450000Y-86825000D03*
X67450000Y-85175000D03*
%TD*%
%TO.C,R7*%
X43450000Y-86825000D03*
X43450000Y-85175000D03*
%TD*%
D19*
%TO.C,C15*%
X61225000Y-80000000D03*
X59675000Y-80000000D03*
%TD*%
D26*
%TO.C,RN5*%
X55850000Y-53800000D03*
D27*
X55850000Y-54600000D03*
X55850000Y-55400000D03*
D26*
X55850000Y-56200000D03*
X54050000Y-56200000D03*
D27*
X54050000Y-55400000D03*
X54050000Y-54600000D03*
D26*
X54050000Y-53800000D03*
%TD*%
D17*
%TO.C,R12*%
X64950000Y-86000000D03*
X64950000Y-87650000D03*
%TD*%
D20*
%TO.C,RN15*%
X61650000Y-94400000D03*
D21*
X60850000Y-94400000D03*
X60050000Y-94400000D03*
D20*
X59250000Y-94400000D03*
X59250000Y-92600000D03*
D21*
X60050000Y-92600000D03*
X60850000Y-92600000D03*
D20*
X61650000Y-92600000D03*
%TD*%
%TO.C,RN16*%
X61650000Y-77900000D03*
D21*
X60850000Y-77900000D03*
X60050000Y-77900000D03*
D20*
X59250000Y-77900000D03*
X59250000Y-76100000D03*
D21*
X60050000Y-76100000D03*
X60850000Y-76100000D03*
D20*
X61650000Y-76100000D03*
%TD*%
D18*
%TO.C,P1*%
X38925000Y-83190000D03*
X38925000Y-84460000D03*
X38925000Y-85730000D03*
X38925000Y-87000000D03*
X38925000Y-88270000D03*
X38925000Y-89540000D03*
X38925000Y-90810000D03*
X33975000Y-90810000D03*
X33975000Y-89540000D03*
X33975000Y-88270000D03*
X33975000Y-87000000D03*
X33975000Y-85730000D03*
X33975000Y-84460000D03*
X33975000Y-83190000D03*
%TD*%
D26*
%TO.C,RN8*%
X57550000Y-56200000D03*
D27*
X57550000Y-55400000D03*
X57550000Y-54600000D03*
D26*
X57550000Y-53800000D03*
X59350000Y-53800000D03*
D27*
X59350000Y-54600000D03*
X59350000Y-55400000D03*
D26*
X59350000Y-56200000D03*
%TD*%
%TO.C,RN3*%
X55850000Y-58300000D03*
D27*
X55850000Y-59100000D03*
X55850000Y-59900000D03*
D26*
X55850000Y-60700000D03*
X54050000Y-60700000D03*
D27*
X54050000Y-59900000D03*
X54050000Y-59100000D03*
D26*
X54050000Y-58300000D03*
%TD*%
D18*
%TO.C,P8*%
X74925000Y-66690000D03*
X74925000Y-67960000D03*
X74925000Y-69230000D03*
X74925000Y-70500000D03*
X74925000Y-71770000D03*
X74925000Y-73040000D03*
X74925000Y-74310000D03*
X69975000Y-74310000D03*
X69975000Y-73040000D03*
X69975000Y-71770000D03*
X69975000Y-70500000D03*
X69975000Y-69230000D03*
X69975000Y-67960000D03*
X69975000Y-66690000D03*
%TD*%
D26*
%TO.C,RN4*%
X84350000Y-58300000D03*
D27*
X84350000Y-59100000D03*
X84350000Y-59900000D03*
D26*
X84350000Y-60700000D03*
X82550000Y-60700000D03*
D27*
X82550000Y-59900000D03*
X82550000Y-59100000D03*
D26*
X82550000Y-58300000D03*
%TD*%
D19*
%TO.C,C11*%
X49190000Y-81090000D03*
X47640000Y-81090000D03*
%TD*%
D17*
%TO.C,R16*%
X76950000Y-86000000D03*
X76950000Y-87650000D03*
%TD*%
D19*
%TO.C,C13*%
X49225000Y-63500000D03*
X47675000Y-63500000D03*
%TD*%
D20*
%TO.C,RN18*%
X73650000Y-77900000D03*
D21*
X72850000Y-77900000D03*
X72050000Y-77900000D03*
D20*
X71250000Y-77900000D03*
X71250000Y-76100000D03*
D21*
X72050000Y-76100000D03*
X72850000Y-76100000D03*
D20*
X73650000Y-76100000D03*
%TD*%
D17*
%TO.C,R6*%
X40950000Y-69500000D03*
X40950000Y-71150000D03*
%TD*%
D26*
%TO.C,RN10*%
X57550000Y-60700000D03*
D27*
X57550000Y-59900000D03*
X57550000Y-59100000D03*
D26*
X57550000Y-58300000D03*
X59350000Y-58300000D03*
D27*
X59350000Y-59100000D03*
X59350000Y-59900000D03*
D26*
X59350000Y-60700000D03*
%TD*%
D22*
%TO.C,C6*%
X31450000Y-88500000D03*
X31450000Y-90050000D03*
%TD*%
D17*
%TO.C,R18*%
X76950000Y-69500000D03*
X76950000Y-71150000D03*
%TD*%
%TO.C,R5*%
X40950000Y-86000000D03*
X40950000Y-87650000D03*
%TD*%
D19*
%TO.C,C9*%
X37225000Y-63500000D03*
X35675000Y-63500000D03*
%TD*%
%TO.C,C21*%
X73225000Y-63500000D03*
X71675000Y-63500000D03*
%TD*%
D18*
%TO.C,P7*%
X74925000Y-83190000D03*
X74925000Y-84460000D03*
X74925000Y-85730000D03*
X74925000Y-87000000D03*
X74925000Y-88270000D03*
X74925000Y-89540000D03*
X74925000Y-90810000D03*
X69975000Y-90810000D03*
X69975000Y-89540000D03*
X69975000Y-88270000D03*
X69975000Y-87000000D03*
X69975000Y-85730000D03*
X69975000Y-84460000D03*
X69975000Y-83190000D03*
%TD*%
D23*
%TO.C,R13*%
X55450000Y-70325000D03*
X55450000Y-68675000D03*
%TD*%
D24*
%TO.C,J6*%
X28800000Y-27050000D03*
X30050000Y-27050000D03*
X31300000Y-27050000D03*
X32550000Y-27050000D03*
X33800000Y-27050000D03*
D25*
X35650000Y-23850000D03*
X26950000Y-23850000D03*
%TD*%
D22*
%TO.C,C16*%
X55450000Y-72000000D03*
X55450000Y-73550000D03*
%TD*%
D18*
%TO.C,P3*%
X50925000Y-83190000D03*
X50925000Y-84460000D03*
X50925000Y-85730000D03*
X50925000Y-87000000D03*
X50925000Y-88270000D03*
X50925000Y-89540000D03*
X50925000Y-90810000D03*
X45975000Y-90810000D03*
X45975000Y-89540000D03*
X45975000Y-88270000D03*
X45975000Y-87000000D03*
X45975000Y-85730000D03*
X45975000Y-84460000D03*
X45975000Y-83190000D03*
%TD*%
D23*
%TO.C,R4*%
X31450000Y-70325000D03*
X31450000Y-68675000D03*
%TD*%
D28*
X86645000Y-38200000D03*
X39565000Y-51415000D03*
D29*
X86845000Y-76750000D03*
D28*
X45860000Y-62900000D03*
X78560000Y-23695000D03*
X44500000Y-94990000D03*
X73900000Y-33800000D03*
X63125000Y-63465000D03*
X31110000Y-50955000D03*
X65500000Y-42000000D03*
X67465000Y-114935000D03*
X58730000Y-64690000D03*
X53650000Y-84630000D03*
X29545000Y-75680000D03*
X29255000Y-36335000D03*
X41900000Y-42500000D03*
X31190000Y-23890000D03*
X45050000Y-49215000D03*
X28355000Y-41560000D03*
X42840000Y-115490000D03*
X58470000Y-42020000D03*
X36495000Y-62125000D03*
X54805000Y-115420000D03*
X58300000Y-52200000D03*
X70920000Y-22050000D03*
X82035000Y-49230000D03*
X47100000Y-41000000D03*
X55390000Y-81250000D03*
X29555000Y-70870000D03*
X79240000Y-36600000D03*
X79270000Y-84940000D03*
X35000000Y-42100000D03*
X22350000Y-35125000D03*
X74150000Y-65015000D03*
X51320000Y-32245000D03*
D29*
X82335000Y-44205000D03*
D28*
X58055000Y-32150000D03*
X22700000Y-57100000D03*
X32325000Y-82740000D03*
X64865000Y-61230000D03*
X73290000Y-59140000D03*
X79285000Y-73120000D03*
X56710000Y-95100000D03*
X41425000Y-73120000D03*
D29*
X85410000Y-51115000D03*
D28*
X29395000Y-83355000D03*
X75555000Y-50170000D03*
X57000000Y-45800000D03*
X26300000Y-45800000D03*
D29*
X83200000Y-39695000D03*
D28*
X51000000Y-49600000D03*
X36600000Y-69767731D03*
X72275000Y-85975000D03*
X39840687Y-75334313D03*
X51300000Y-75575000D03*
X61300000Y-85700000D03*
X48200000Y-85787311D03*
X60700000Y-69667731D03*
X48500000Y-69200000D03*
X36275000Y-84325000D03*
X73215000Y-69280000D03*
X37536820Y-90000000D03*
X35369100Y-90256400D03*
X37536820Y-72400000D03*
X35350000Y-72400000D03*
X49536820Y-90100000D03*
X47369100Y-90175152D03*
X49536820Y-72400000D03*
X47350000Y-72400000D03*
X61536820Y-90100000D03*
X59369100Y-90200000D03*
X65010000Y-72310000D03*
X59805000Y-72065000D03*
X73536820Y-90117508D03*
X71369100Y-88888443D03*
X73536820Y-72400000D03*
X71350000Y-72400000D03*
X82975000Y-48080000D03*
D29*
X81106250Y-45808750D03*
D28*
X50621800Y-44815900D03*
D29*
X81135000Y-43405000D03*
D28*
X24900000Y-54100000D03*
X24089397Y-54606627D03*
X51100000Y-43800000D03*
X83700000Y-47190000D03*
X57100000Y-48200000D03*
X26200000Y-48200000D03*
X49450000Y-58000000D03*
X48050000Y-83300000D03*
X48150000Y-84600000D03*
X49450000Y-56500000D03*
X52413180Y-80248356D03*
X49450000Y-61000000D03*
X53019100Y-81300000D03*
X49450000Y-59500000D03*
X79950000Y-58000000D03*
X72444100Y-83200000D03*
X72444100Y-84400000D03*
X79950000Y-56500000D03*
X79950000Y-61000000D03*
X78095000Y-77815000D03*
X79586230Y-77761230D03*
X79950000Y-59500000D03*
X48444100Y-66800000D03*
X49450000Y-52000000D03*
X47950000Y-67900000D03*
X49450000Y-50500000D03*
X49450000Y-55000000D03*
X50500000Y-63300011D03*
X49450000Y-53500000D03*
X51395043Y-63635640D03*
X72444100Y-65360000D03*
X79950000Y-52000000D03*
X79950000Y-50500000D03*
X71470000Y-65240000D03*
X76050000Y-63700000D03*
X79950000Y-55000000D03*
X74950000Y-63600000D03*
X79950000Y-53500000D03*
X31936393Y-79090753D03*
X35450000Y-53500000D03*
X33000000Y-78500000D03*
X35450000Y-54500000D03*
X35450000Y-51500000D03*
X39300000Y-79300000D03*
X35450000Y-52500000D03*
X38280900Y-80200000D03*
X65450000Y-53500000D03*
X57472820Y-77227180D03*
X58200000Y-78000000D03*
X65450000Y-54500000D03*
X65397820Y-51447820D03*
X61780900Y-81500000D03*
X63102180Y-80202180D03*
X65450000Y-52500000D03*
X35750000Y-66700000D03*
X35450000Y-58000000D03*
X36350000Y-67600000D03*
X35450000Y-59000000D03*
X38600000Y-62400000D03*
X35450000Y-56000000D03*
X35450000Y-57000000D03*
X39500000Y-63180900D03*
X59750011Y-65180000D03*
X65450000Y-58000000D03*
X60779100Y-64775000D03*
X65450000Y-59000000D03*
X64950000Y-63800000D03*
X65450000Y-56000000D03*
X65450000Y-57000000D03*
X64950000Y-65000000D03*
X29617559Y-30600000D03*
X24100000Y-37700000D03*
X33725775Y-77877907D03*
X34400000Y-96500000D03*
X24300000Y-75900000D03*
X30398459Y-32949229D03*
X41700000Y-48800000D03*
X44300000Y-67000000D03*
X32019100Y-31700000D03*
X40015000Y-49510000D03*
X32800000Y-32900000D03*
X48440000Y-96475000D03*
X73300000Y-46100000D03*
X68130130Y-62439230D03*
X78100000Y-31500000D03*
X62500000Y-96000000D03*
X80280000Y-70140000D03*
X80100000Y-32800000D03*
X77435000Y-90845000D03*
X80284700Y-64810000D03*
X72000000Y-46000000D03*
X77319100Y-30712892D03*
X72450000Y-71005000D03*
X80190000Y-62545000D03*
X72430000Y-67155000D03*
X79719100Y-30900000D03*
M02*
