%TF.GenerationSoftware,KiCad,Pcbnew,(6.0.0)*%
%TF.CreationDate,2022-08-06T01:14:48-04:00*%
%TF.ProjectId,security module,73656375-7269-4747-9920-6d6f64756c65,rev?*%
%TF.SameCoordinates,Original*%
%TF.FileFunction,Profile,NP*%
%FSLAX46Y46*%
G04 Gerber Fmt 4.6, Leading zero omitted, Abs format (unit mm)*
G04 Created by KiCad (PCBNEW (6.0.0)) date 2022-08-06 01:14:48*
%MOMM*%
%LPD*%
G01*
G04 APERTURE LIST*
%TA.AperFunction,Profile*%
%ADD10C,0.050000*%
%TD*%
G04 APERTURE END LIST*
D10*
X20000000Y-113600000D02*
G75*
G03*
X20000000Y-110400000I-200710J1600000D01*
G01*
X89500000Y-26400000D02*
G75*
G03*
X89500000Y-29600000I200710J-1600000D01*
G01*
X89500000Y-22000000D02*
X89500000Y-26400000D01*
X87500000Y-120000000D02*
X22000000Y-120000000D01*
X89500000Y-71600000D02*
X89500000Y-110400000D01*
X20000000Y-22000000D02*
X20000000Y-26400000D01*
X89500000Y-113600000D02*
X89500000Y-118000000D01*
X20000000Y-118000000D02*
X20000000Y-113600000D01*
X89500000Y-68400000D02*
X89500000Y-29600000D01*
X20000000Y-71600000D02*
G75*
G03*
X20000000Y-68400000I-200710J1600000D01*
G01*
X89500000Y-110400000D02*
G75*
G03*
X89500000Y-113600000I200710J-1600000D01*
G01*
X89500000Y-68400000D02*
G75*
G03*
X89500000Y-71600000I200710J-1600000D01*
G01*
X22000000Y-20000000D02*
X87500000Y-20000000D01*
X89500000Y-22000000D02*
G75*
G03*
X87500000Y-20000000I-1999999J1D01*
G01*
X87500000Y-120000000D02*
G75*
G03*
X89500000Y-118000000I1J1999999D01*
G01*
X20000000Y-29600000D02*
X20000000Y-68400000D01*
X20000000Y-29600000D02*
G75*
G03*
X20000000Y-26400000I-200710J1600000D01*
G01*
X20000000Y-71600000D02*
X20000000Y-110400000D01*
X22000000Y-20000000D02*
G75*
G03*
X20000000Y-22000000I-1J-1999999D01*
G01*
X20000000Y-118000000D02*
G75*
G03*
X22000000Y-120000000I1999999J-1D01*
G01*
M02*
