M48
; DRILL file {KiCad (6.0.0)} date Sat Aug  6 01:14:48 2022
; FORMAT={-:-/ absolute / inch / decimal}
; #@! TF.CreationDate,2022-08-06T01:14:48-04:00
; #@! TF.GenerationSoftware,Kicad,Pcbnew,(6.0.0)
; #@! TF.FileFunction,Plated,1,2,PTH
FMAT,2
INCH
; #@! TA.AperFunction,Plated,PTH,ViaDrill
T1C0.0138
; #@! TA.AperFunction,Plated,PTH,ViaDrill
T2C0.0157
; #@! TA.AperFunction,Plated,PTH,ComponentDrill
T3C0.0354
; #@! TA.AperFunction,Plated,PTH,ComponentDrill
T4C0.0394
; #@! TA.AperFunction,Plated,PTH,ComponentDrill
T5C0.0512
; #@! TA.AperFunction,Plated,PTH,ComponentDrill
T6C0.0630
%
G90
G05
T1
X0.8799Y-1.3829
X0.8937Y-2.248
X0.9484Y-2.1499
X0.9488Y-1.4843
X0.9567Y-2.9882
X0.9803Y-2.1299
X1.0315Y-1.8976
X1.0354Y-1.8031
X1.1163Y-1.6362
X1.1518Y-1.4305
X1.1573Y-3.2817
X1.1632Y-2.9795
X1.1636Y-2.7902
X1.166Y-1.2047
X1.1968Y-1.2972
X1.2248Y-2.0061
X1.228Y-0.9406
X1.2573Y-3.1138
X1.2606Y-1.248
X1.2726Y-3.2575
X1.2913Y-1.2953
X1.2992Y-3.0906
X1.3278Y-3.0661
X1.3543Y-3.7992
X1.378Y-1.6575
X1.3917Y-2.8504
X1.3925Y-3.5534
X1.3957Y-2.0276
X1.3957Y-2.0669
X1.3957Y-2.1063
X1.3957Y-2.1457
X1.3957Y-2.2047
X1.3957Y-2.2441
X1.3957Y-2.2835
X1.3957Y-2.3228
X1.4075Y-2.626
X1.4281Y-3.3199
X1.4311Y-2.6614
X1.4368Y-2.4459
X1.4409Y-2.7468
X1.4778Y-2.8504
X1.4778Y-3.5433
X1.5071Y-3.1575
X1.5197Y-2.4567
X1.5472Y-3.122
X1.5551Y-2.4874
X1.5577Y-2.0242
X1.5685Y-2.9659
X1.5754Y-1.9492
X1.6309Y-2.8787
X1.6417Y-1.9213
X1.6496Y-1.6732
X1.6866Y-4.5469
X1.7441Y-2.6378
X1.752Y-3.7398
X1.7736Y-1.9376
X1.8055Y-2.4764
X1.8543Y-1.6142
X1.8642Y-2.8504
X1.8649Y-3.5502
X1.8878Y-2.6732
X1.8917Y-3.2795
X1.8957Y-3.3307
X1.8976Y-3.3775
X1.9071Y-3.7982
X1.9072Y-2.6299
X1.9094Y-2.7244
X1.9469Y-1.9882
X1.9469Y-2.0472
X1.9469Y-2.1063
X1.9469Y-2.1654
X1.9469Y-2.2244
X1.9469Y-2.2835
X1.9469Y-2.3425
X1.9469Y-2.4016
X1.9503Y-2.8504
X1.9503Y-3.5472
X1.9882Y-2.4921
X1.993Y-1.7644
X2.0079Y-1.9528
X2.0118Y-1.7244
X2.0197Y-2.9754
X2.0205Y-1.2695
X2.0234Y-2.5053
X2.0635Y-3.1594
X2.0874Y-3.2008
X2.1122Y-3.3319
X2.1577Y-4.5441
X2.1807Y-3.1988
X2.2327Y-3.7441
X2.2441Y-1.8031
X2.248Y-1.8976
X2.2627Y-3.0404
X2.2856Y-1.2657
X2.2913Y-3.0709
X2.2953Y-2.0551
X2.302Y-1.6543
X2.3122Y-2.5469
X2.3374Y-3.5512
X2.3524Y-2.5661
X2.3545Y-2.8372
X2.3898Y-2.7428
X2.3929Y-2.5502
X2.4134Y-3.374
X2.4227Y-3.5472
X2.4323Y-3.2087
X2.4606Y-3.7795
X2.4843Y-3.1576
X2.4852Y-2.4986
X2.5537Y-2.4106
X2.5571Y-2.5118
X2.5571Y-2.5591
X2.5594Y-2.8469
X2.5747Y-2.0255
X2.5768Y-2.0669
X2.5768Y-2.1063
X2.5768Y-2.1457
X2.5768Y-2.2047
X2.5768Y-2.2441
X2.5768Y-2.2835
X2.5768Y-2.3228
X2.5787Y-1.6535
X2.6561Y-4.525
X2.6823Y-2.4582
X2.7921Y-0.8681
X2.8091Y-2.8504
X2.8098Y-3.4995
X2.8138Y-2.5685
X2.8346Y-1.811
X2.8455Y-3.3848
X2.8516Y-2.6439
X2.8521Y-2.5732
X2.8521Y-3.2756
X2.8521Y-3.3228
X2.8524Y-2.7955
X2.8825Y-2.7276
X2.8854Y-2.3283
X2.8858Y-1.815
X2.8952Y-2.8504
X2.8952Y-3.5479
X2.9094Y-1.3307
X2.9193Y-2.5596
X2.9508Y-2.5039
X2.9746Y-1.9752
X2.9941Y-2.5079
X3.0441Y-1.2092
X3.0486Y-3.5766
X3.0746Y-3.0636
X3.0748Y-1.2402
X3.0929Y-0.9329
X3.1197Y-1.4409
X3.1209Y-3.3441
X3.1215Y-2.8787
X3.1333Y-3.0615
X3.1385Y-1.2165
X3.1476Y-1.9882
X3.1476Y-2.0472
X3.1476Y-2.1063
X3.1476Y-2.1654
X3.1476Y-2.2244
X3.1476Y-2.2835
X3.1476Y-2.3425
X3.1476Y-2.4016
X3.1535Y-1.2913
X3.1571Y-2.4624
X3.1606Y-2.7614
X3.1608Y-2.5516
X3.2297Y-1.9382
X3.2667Y-1.8929
X3.2953Y-1.8579
X3.4112Y-1.5039
T2
X3.1932Y-1.8035
X3.1943Y-1.7089
X3.2415Y-1.7404
X3.2756Y-1.5628
X3.3626Y-2.0124
X3.4191Y-3.0217
T3
X1.1539Y-3.9386
X1.1539Y-4.1984
X1.2039Y-3.8386
X1.2039Y-4.0984
X1.2539Y-3.9386
X1.2539Y-4.1984
X1.3039Y-3.8386
X1.3039Y-4.0984
X1.3539Y-3.9386
X1.3539Y-4.1984
X1.4039Y-3.8386
X1.4039Y-4.0984
X1.4539Y-3.9386
X1.4539Y-4.1984
X1.5039Y-3.8386
X1.5039Y-4.0984
X1.7039Y-3.9386
X1.7039Y-4.1984
X1.7539Y-3.8386
X1.7539Y-4.0984
X1.8039Y-3.9386
X1.8039Y-4.1984
X1.8539Y-3.8386
X1.8539Y-4.0984
X1.9039Y-3.9386
X1.9039Y-4.1984
X1.9539Y-3.8386
X1.9539Y-4.0984
X2.0039Y-3.9386
X2.0039Y-4.1984
X2.0539Y-3.8386
X2.0539Y-4.0984
X2.2539Y-3.9386
X2.2539Y-4.1984
X2.3039Y-3.8386
X2.3039Y-4.0984
X2.3539Y-3.9386
X2.3539Y-4.1984
X2.4039Y-3.8386
X2.4039Y-4.0984
X2.4539Y-3.9386
X2.4539Y-4.1984
X2.5039Y-3.8386
X2.5039Y-4.0984
X2.5539Y-3.9386
X2.5539Y-4.1984
X2.6039Y-3.8386
X2.6039Y-4.0984
X2.8039Y-3.9386
X2.8039Y-4.1984
X2.8539Y-3.8386
X2.8539Y-4.0984
X2.9039Y-3.9386
X2.9039Y-4.1984
X2.9539Y-3.8386
X2.9539Y-4.0984
X3.0039Y-3.9386
X3.0039Y-4.1984
X3.0539Y-3.8386
X3.0539Y-4.0984
X3.1039Y-3.9386
X3.1039Y-4.1984
X3.1539Y-3.8386
X3.1539Y-4.0984
T4
X0.961Y-3.2882
X0.961Y-3.3882
X0.961Y-3.4882
X1.061Y-3.2882
X1.061Y-3.3882
X1.061Y-3.4882
X3.2484Y-3.2882
X3.2484Y-3.3882
X3.2484Y-3.4882
X3.3484Y-3.2882
X3.3484Y-3.3882
X3.3484Y-3.4882
T5
X1.5945Y-1.0
X1.7913Y-1.0
X2.5197Y-1.0
X2.7165Y-1.0
T6
X0.9941Y-3.8386
X0.9941Y-4.6283
X1.0203Y-4.0882
X3.2876Y-4.2181
X3.3138Y-3.9984
X3.3138Y-4.6283
T0
M30
