%TF.GenerationSoftware,KiCad,Pcbnew,(6.0.0)*%
%TF.CreationDate,2022-08-06T01:30:50-04:00*%
%TF.ProjectId,port PWR extention,706f7274-2050-4575-9220-657874656e74,rev?*%
%TF.SameCoordinates,Original*%
%TF.FileFunction,Copper,L1,Top*%
%TF.FilePolarity,Positive*%
%FSLAX46Y46*%
G04 Gerber Fmt 4.6, Leading zero omitted, Abs format (unit mm)*
G04 Created by KiCad (PCBNEW (6.0.0)) date 2022-08-06 01:30:50*
%MOMM*%
%LPD*%
G01*
G04 APERTURE LIST*
%TA.AperFunction,SMDPad,CuDef*%
%ADD10R,3.300000X1.200000*%
%TD*%
%TA.AperFunction,ViaPad*%
%ADD11C,0.756412*%
%TD*%
%TA.AperFunction,ViaPad*%
%ADD12C,0.800000*%
%TD*%
%TA.AperFunction,Conductor*%
%ADD13C,0.406400*%
%TD*%
G04 APERTURE END LIST*
D10*
%TO.P,SW2,1*%
%TO.N,GNDREF*%
X49050000Y-22190000D03*
%TO.P,SW2,2*%
X49050000Y-24730000D03*
%TO.P,SW2,3*%
X49050000Y-27270000D03*
%TO.P,SW2,4*%
X49050000Y-29810000D03*
%TO.P,SW2,5*%
%TO.N,pw8*%
X56950000Y-29810000D03*
%TO.P,SW2,6*%
%TO.N,pw7*%
X56950000Y-27270000D03*
%TO.P,SW2,7*%
%TO.N,pw6*%
X56950000Y-24730000D03*
%TO.P,SW2,8*%
%TO.N,pw5*%
X56950000Y-22190000D03*
%TD*%
%TO.P,SW1,1*%
%TO.N,GNDREF*%
X44950000Y-29810000D03*
%TO.P,SW1,2*%
X44950000Y-27270000D03*
%TO.P,SW1,3*%
X44950000Y-24730000D03*
%TO.P,SW1,4*%
X44950000Y-22190000D03*
%TO.P,SW1,5*%
%TO.N,pw4*%
X37050000Y-22190000D03*
%TO.P,SW1,6*%
%TO.N,pw3*%
X37050000Y-24730000D03*
%TO.P,SW1,7*%
%TO.N,pw2*%
X37050000Y-27270000D03*
%TO.P,SW1,8*%
%TO.N,pw1*%
X37050000Y-29810000D03*
%TD*%
D11*
%TO.N,pw1*%
X27445000Y-29870000D03*
%TO.N,pw2*%
X27650000Y-28560000D03*
%TO.N,pw3*%
X27235000Y-22760000D03*
%TO.N,pw4*%
X23770000Y-24785000D03*
D12*
%TO.N,GNDREF*%
X41000000Y-23500000D03*
X41000000Y-28500000D03*
X72000000Y-24000000D03*
X53000000Y-23500000D03*
X22000000Y-28000000D03*
X72000000Y-28000000D03*
X22000000Y-24000000D03*
X53000000Y-26000000D03*
X41000000Y-26000000D03*
X53000000Y-28500000D03*
D11*
%TO.N,pw5*%
X68145000Y-22015000D03*
%TO.N,pw6*%
X66950000Y-22325000D03*
%TO.N,pw7*%
X66615000Y-28290000D03*
%TO.N,pw8*%
X70345000Y-27385000D03*
%TD*%
D13*
%TO.N,pw1*%
X28130920Y-30555920D02*
X35014080Y-30555920D01*
X35760000Y-29810000D02*
X37050000Y-29810000D01*
X27445000Y-29870000D02*
X28130920Y-30555920D01*
X35014080Y-30555920D02*
X35760000Y-29810000D01*
%TO.N,pw2*%
X27650000Y-28560000D02*
X29040000Y-29950000D01*
X33380000Y-29950000D02*
X36060000Y-27270000D01*
X29040000Y-29950000D02*
X33380000Y-29950000D01*
X36060000Y-27270000D02*
X37050000Y-27270000D01*
%TO.N,pw3*%
X35830000Y-24730000D02*
X37050000Y-24730000D01*
X27235000Y-22760000D02*
X27975000Y-22020000D01*
X27975000Y-22020000D02*
X33120000Y-22020000D01*
X33120000Y-22020000D02*
X35830000Y-24730000D01*
%TO.N,pw4*%
X34949080Y-21414080D02*
X35725000Y-22190000D01*
X23770000Y-24785000D02*
X24074794Y-24785000D01*
X27445714Y-21414080D02*
X34949080Y-21414080D01*
X24074794Y-24785000D02*
X27445714Y-21414080D01*
X35725000Y-22190000D02*
X37050000Y-22190000D01*
%TO.N,pw5*%
X68145000Y-22015000D02*
X67570000Y-21440000D01*
X58275000Y-22190000D02*
X56950000Y-22190000D01*
X59025000Y-21440000D02*
X58275000Y-22190000D01*
X67570000Y-21440000D02*
X59025000Y-21440000D01*
%TO.N,pw6*%
X66670920Y-22045920D02*
X60854080Y-22045920D01*
X58170000Y-24730000D02*
X56950000Y-24730000D01*
X66950000Y-22325000D02*
X66670920Y-22045920D01*
X60854080Y-22045920D02*
X58170000Y-24730000D01*
%TO.N,pw7*%
X58230000Y-27270000D02*
X56950000Y-27270000D01*
X66615000Y-28290000D02*
X66320000Y-28290000D01*
X64670920Y-29939080D02*
X60899080Y-29939080D01*
X60899080Y-29939080D02*
X58230000Y-27270000D01*
X66320000Y-28290000D02*
X64670920Y-29939080D01*
%TO.N,pw8*%
X67185000Y-30545000D02*
X58990000Y-30545000D01*
X70345000Y-27385000D02*
X67185000Y-30545000D01*
X58990000Y-30545000D02*
X58255000Y-29810000D01*
X58255000Y-29810000D02*
X56950000Y-29810000D01*
%TD*%
%TA.AperFunction,Conductor*%
%TO.N,GNDREF*%
G36*
X72506518Y-19000606D02*
G01*
X72683067Y-19017991D01*
X72707281Y-19022806D01*
X72780542Y-19045024D01*
X72871091Y-19072486D01*
X72893906Y-19081934D01*
X73044878Y-19162608D01*
X73065412Y-19176324D01*
X73120956Y-19221892D01*
X73197754Y-19284898D01*
X73215213Y-19302351D01*
X73323836Y-19434655D01*
X73337558Y-19455180D01*
X73418287Y-19606122D01*
X73427744Y-19628935D01*
X73477482Y-19792727D01*
X73482307Y-19816945D01*
X73499755Y-19993477D01*
X73500366Y-20005824D01*
X73502109Y-24793188D01*
X73504354Y-30955867D01*
X73504728Y-31983724D01*
X73504126Y-31996076D01*
X73486794Y-32172685D01*
X73481983Y-32196915D01*
X73432330Y-32360795D01*
X73422886Y-32383615D01*
X73342209Y-32534663D01*
X73328498Y-32555197D01*
X73264997Y-32632618D01*
X73219903Y-32687597D01*
X73202441Y-32705069D01*
X73070105Y-32813734D01*
X73049568Y-32827464D01*
X72898570Y-32908221D01*
X72875750Y-32917679D01*
X72711905Y-32967421D01*
X72687678Y-32972246D01*
X72651795Y-32975787D01*
X72511078Y-32989675D01*
X72498727Y-32990284D01*
X31906351Y-32997942D01*
X21507189Y-32999904D01*
X21494838Y-32999299D01*
X21388744Y-32988864D01*
X21318147Y-32981920D01*
X21293908Y-32977100D01*
X21261998Y-32967421D01*
X21129972Y-32927375D01*
X21107143Y-32917918D01*
X20956061Y-32837144D01*
X20935517Y-32823412D01*
X20933324Y-32821611D01*
X20803115Y-32714707D01*
X20785644Y-32697227D01*
X20677004Y-32564762D01*
X20663281Y-32544208D01*
X20582589Y-32393087D01*
X20573143Y-32370249D01*
X20523504Y-32206290D01*
X20518697Y-32182048D01*
X20501412Y-32005360D01*
X20500813Y-31993002D01*
X20500816Y-31989919D01*
X20502330Y-29870000D01*
X26858073Y-29870000D01*
X26878072Y-30021908D01*
X26936706Y-30163463D01*
X27029980Y-30285020D01*
X27036530Y-30290046D01*
X27036533Y-30290049D01*
X27144983Y-30373266D01*
X27151536Y-30378294D01*
X27222314Y-30407611D01*
X27285462Y-30433768D01*
X27285465Y-30433769D01*
X27293092Y-30436928D01*
X27415820Y-30453085D01*
X27480746Y-30481807D01*
X27488468Y-30488911D01*
X27865830Y-30866274D01*
X27865841Y-30866285D01*
X27865856Y-30866299D01*
X27888769Y-30889212D01*
X27908827Y-30899432D01*
X27925679Y-30909760D01*
X27943888Y-30922989D01*
X27965288Y-30929942D01*
X27983553Y-30937507D01*
X28003614Y-30947729D01*
X28013405Y-30949280D01*
X28013409Y-30949281D01*
X28025857Y-30951253D01*
X28045077Y-30955867D01*
X28066473Y-30962819D01*
X28098892Y-30962819D01*
X28098896Y-30962820D01*
X35078526Y-30962820D01*
X35099928Y-30955866D01*
X35119154Y-30951250D01*
X35131593Y-30949280D01*
X35141386Y-30947729D01*
X35152864Y-30941881D01*
X35161438Y-30937512D01*
X35179700Y-30929948D01*
X35191677Y-30926056D01*
X35191679Y-30926055D01*
X35201112Y-30922990D01*
X35219321Y-30909760D01*
X35236176Y-30899430D01*
X35256231Y-30889212D01*
X35494838Y-30650605D01*
X35557150Y-30616579D01*
X35583933Y-30613700D01*
X38720064Y-30613700D01*
X38779480Y-30601881D01*
X38846860Y-30556860D01*
X38891881Y-30489480D01*
X38903700Y-30430064D01*
X38903700Y-30428828D01*
X43046001Y-30428828D01*
X43047209Y-30441088D01*
X43058315Y-30496931D01*
X43067633Y-30519427D01*
X43109983Y-30582808D01*
X43127192Y-30600017D01*
X43190575Y-30642368D01*
X43213066Y-30651684D01*
X43268915Y-30662793D01*
X43281170Y-30664000D01*
X44627085Y-30664000D01*
X44642324Y-30659525D01*
X44643529Y-30658135D01*
X44645200Y-30650452D01*
X44645200Y-30645884D01*
X45254800Y-30645884D01*
X45259275Y-30661123D01*
X45260665Y-30662328D01*
X45268348Y-30663999D01*
X46618828Y-30663999D01*
X46631088Y-30662791D01*
X46686931Y-30651685D01*
X46709427Y-30642367D01*
X46772808Y-30600017D01*
X46790017Y-30582808D01*
X46832368Y-30519425D01*
X46841684Y-30496934D01*
X46852793Y-30441085D01*
X46854000Y-30428830D01*
X46854000Y-30428828D01*
X47146001Y-30428828D01*
X47147209Y-30441088D01*
X47158315Y-30496931D01*
X47167633Y-30519427D01*
X47209983Y-30582808D01*
X47227192Y-30600017D01*
X47290575Y-30642368D01*
X47313066Y-30651684D01*
X47368915Y-30662793D01*
X47381170Y-30664000D01*
X48727085Y-30664000D01*
X48742324Y-30659525D01*
X48743529Y-30658135D01*
X48745200Y-30650452D01*
X48745200Y-30645884D01*
X49354800Y-30645884D01*
X49359275Y-30661123D01*
X49360665Y-30662328D01*
X49368348Y-30663999D01*
X50718828Y-30663999D01*
X50731088Y-30662791D01*
X50786931Y-30651685D01*
X50809427Y-30642367D01*
X50872808Y-30600017D01*
X50890017Y-30582808D01*
X50932368Y-30519425D01*
X50941684Y-30496934D01*
X50952793Y-30441085D01*
X50953878Y-30430064D01*
X55096300Y-30430064D01*
X55108119Y-30489480D01*
X55153140Y-30556860D01*
X55220520Y-30601881D01*
X55279936Y-30613700D01*
X58431067Y-30613700D01*
X58499188Y-30633702D01*
X58520162Y-30650605D01*
X58747849Y-30878292D01*
X58767904Y-30888510D01*
X58784759Y-30898840D01*
X58802968Y-30912070D01*
X58812401Y-30915135D01*
X58812403Y-30915136D01*
X58824380Y-30919028D01*
X58842641Y-30926592D01*
X58862694Y-30936809D01*
X58872487Y-30938360D01*
X58884926Y-30940330D01*
X58904152Y-30944946D01*
X58925554Y-30951900D01*
X67249446Y-30951900D01*
X67270848Y-30944946D01*
X67290074Y-30940330D01*
X67302513Y-30938360D01*
X67312306Y-30936809D01*
X67332359Y-30926592D01*
X67350620Y-30919028D01*
X67362597Y-30915136D01*
X67362599Y-30915135D01*
X67372032Y-30912070D01*
X67390241Y-30898840D01*
X67407096Y-30888510D01*
X67427151Y-30878292D01*
X70301531Y-28003912D01*
X70363843Y-27969886D01*
X70374171Y-27968087D01*
X70496908Y-27951928D01*
X70504535Y-27948769D01*
X70504538Y-27948768D01*
X70591104Y-27912911D01*
X70638464Y-27893294D01*
X70645017Y-27888266D01*
X70753467Y-27805049D01*
X70753470Y-27805046D01*
X70760020Y-27800020D01*
X70770216Y-27786733D01*
X70806657Y-27739242D01*
X70853294Y-27678463D01*
X70911928Y-27536908D01*
X70931927Y-27385000D01*
X70911928Y-27233092D01*
X70853294Y-27091537D01*
X70760020Y-26969980D01*
X70753470Y-26964954D01*
X70753467Y-26964951D01*
X70645017Y-26881734D01*
X70645015Y-26881733D01*
X70638464Y-26876706D01*
X70543621Y-26837421D01*
X70504538Y-26821232D01*
X70504535Y-26821231D01*
X70496908Y-26818072D01*
X70345000Y-26798073D01*
X70193092Y-26818072D01*
X70051537Y-26876706D01*
X69962618Y-26944936D01*
X69953866Y-26951652D01*
X69929980Y-26969980D01*
X69836706Y-27091537D01*
X69778072Y-27233092D01*
X69769151Y-27300859D01*
X69761915Y-27355820D01*
X69733193Y-27420747D01*
X69726088Y-27428469D01*
X67053362Y-30101195D01*
X66991050Y-30135221D01*
X66964267Y-30138100D01*
X65351533Y-30138100D01*
X65283412Y-30118098D01*
X65236919Y-30064442D01*
X65226815Y-29994168D01*
X65256309Y-29929588D01*
X65262438Y-29923005D01*
X65723918Y-29461526D01*
X66308400Y-28877044D01*
X66370712Y-28843018D01*
X66445710Y-28849729D01*
X66455459Y-28853767D01*
X66455463Y-28853768D01*
X66463092Y-28856928D01*
X66471280Y-28858006D01*
X66539046Y-28866927D01*
X66615000Y-28876927D01*
X66623188Y-28875849D01*
X66758720Y-28858006D01*
X66766908Y-28856928D01*
X66774535Y-28853769D01*
X66774538Y-28853768D01*
X66876159Y-28811675D01*
X66908464Y-28798294D01*
X66956657Y-28761314D01*
X67023467Y-28710049D01*
X67023470Y-28710046D01*
X67030020Y-28705020D01*
X67040342Y-28691569D01*
X67118267Y-28590014D01*
X67123294Y-28583463D01*
X67181928Y-28441908D01*
X67201927Y-28290000D01*
X67181928Y-28138092D01*
X67123294Y-27996537D01*
X67061007Y-27915363D01*
X67035047Y-27881531D01*
X67035046Y-27881530D01*
X67030020Y-27874980D01*
X67023469Y-27869953D01*
X67023467Y-27869951D01*
X66915017Y-27786734D01*
X66915015Y-27786733D01*
X66908464Y-27781706D01*
X66811726Y-27741636D01*
X66774538Y-27726232D01*
X66774535Y-27726231D01*
X66766908Y-27723072D01*
X66615000Y-27703073D01*
X66463092Y-27723072D01*
X66321537Y-27781706D01*
X66199980Y-27874980D01*
X66194952Y-27881533D01*
X66189115Y-27887370D01*
X66187383Y-27885638D01*
X66149671Y-27912289D01*
X66151237Y-27915363D01*
X66142400Y-27919866D01*
X66132968Y-27922930D01*
X66114748Y-27936167D01*
X66097905Y-27946489D01*
X66077849Y-27956708D01*
X66054926Y-27979631D01*
X66054922Y-27979634D01*
X65278698Y-28755859D01*
X64539282Y-29495275D01*
X64476970Y-29529300D01*
X64450187Y-29532180D01*
X61119813Y-29532180D01*
X61051692Y-29512178D01*
X61030718Y-29495275D01*
X58840605Y-27305162D01*
X58806579Y-27242850D01*
X58803700Y-27216067D01*
X58803700Y-26649936D01*
X58791881Y-26590520D01*
X58746860Y-26523140D01*
X58679480Y-26478119D01*
X58620064Y-26466300D01*
X55279936Y-26466300D01*
X55220520Y-26478119D01*
X55153140Y-26523140D01*
X55108119Y-26590520D01*
X55096300Y-26649936D01*
X55096300Y-27890064D01*
X55108119Y-27949480D01*
X55153140Y-28016860D01*
X55220520Y-28061881D01*
X55279936Y-28073700D01*
X58406067Y-28073700D01*
X58474188Y-28093702D01*
X58495162Y-28110605D01*
X60307562Y-29923005D01*
X60341588Y-29985317D01*
X60336523Y-30056132D01*
X60293976Y-30112968D01*
X60227456Y-30137779D01*
X60218467Y-30138100D01*
X59210733Y-30138100D01*
X59142612Y-30118098D01*
X59121638Y-30101195D01*
X58840605Y-29820162D01*
X58806579Y-29757850D01*
X58803700Y-29731067D01*
X58803700Y-29189936D01*
X58791881Y-29130520D01*
X58746860Y-29063140D01*
X58695928Y-29029109D01*
X58689798Y-29025013D01*
X58689797Y-29025013D01*
X58679480Y-29018119D01*
X58620064Y-29006300D01*
X55279936Y-29006300D01*
X55220520Y-29018119D01*
X55210203Y-29025013D01*
X55210202Y-29025013D01*
X55204072Y-29029109D01*
X55153140Y-29063140D01*
X55108119Y-29130520D01*
X55096300Y-29189936D01*
X55096300Y-30430064D01*
X50953878Y-30430064D01*
X50954000Y-30428830D01*
X50954000Y-30132915D01*
X50949525Y-30117676D01*
X50948135Y-30116471D01*
X50940452Y-30114800D01*
X49372915Y-30114800D01*
X49357676Y-30119275D01*
X49356471Y-30120665D01*
X49354800Y-30128348D01*
X49354800Y-30645884D01*
X48745200Y-30645884D01*
X48745200Y-30132915D01*
X48740725Y-30117676D01*
X48739335Y-30116471D01*
X48731652Y-30114800D01*
X47164116Y-30114800D01*
X47148877Y-30119275D01*
X47147672Y-30120665D01*
X47146001Y-30128348D01*
X47146001Y-30428828D01*
X46854000Y-30428828D01*
X46854000Y-30132915D01*
X46849525Y-30117676D01*
X46848135Y-30116471D01*
X46840452Y-30114800D01*
X45272915Y-30114800D01*
X45257676Y-30119275D01*
X45256471Y-30120665D01*
X45254800Y-30128348D01*
X45254800Y-30645884D01*
X44645200Y-30645884D01*
X44645200Y-30132915D01*
X44640725Y-30117676D01*
X44639335Y-30116471D01*
X44631652Y-30114800D01*
X43064116Y-30114800D01*
X43048877Y-30119275D01*
X43047672Y-30120665D01*
X43046001Y-30128348D01*
X43046001Y-30428828D01*
X38903700Y-30428828D01*
X38903700Y-29487085D01*
X43046000Y-29487085D01*
X43050475Y-29502324D01*
X43051865Y-29503529D01*
X43059548Y-29505200D01*
X44627085Y-29505200D01*
X44642324Y-29500725D01*
X44643529Y-29499335D01*
X44645200Y-29491652D01*
X44645200Y-29487085D01*
X45254800Y-29487085D01*
X45259275Y-29502324D01*
X45260665Y-29503529D01*
X45268348Y-29505200D01*
X46835884Y-29505200D01*
X46851123Y-29500725D01*
X46852328Y-29499335D01*
X46853999Y-29491652D01*
X46853999Y-29487085D01*
X47146000Y-29487085D01*
X47150475Y-29502324D01*
X47151865Y-29503529D01*
X47159548Y-29505200D01*
X48727085Y-29505200D01*
X48742324Y-29500725D01*
X48743529Y-29499335D01*
X48745200Y-29491652D01*
X48745200Y-29487085D01*
X49354800Y-29487085D01*
X49359275Y-29502324D01*
X49360665Y-29503529D01*
X49368348Y-29505200D01*
X50935884Y-29505200D01*
X50951123Y-29500725D01*
X50952328Y-29499335D01*
X50953999Y-29491652D01*
X50953999Y-29191172D01*
X50952791Y-29178912D01*
X50941685Y-29123069D01*
X50932367Y-29100573D01*
X50890017Y-29037192D01*
X50872808Y-29019983D01*
X50809425Y-28977632D01*
X50786934Y-28968316D01*
X50731085Y-28957207D01*
X50718830Y-28956000D01*
X49372915Y-28956000D01*
X49357676Y-28960475D01*
X49356471Y-28961865D01*
X49354800Y-28969548D01*
X49354800Y-29487085D01*
X48745200Y-29487085D01*
X48745200Y-28974116D01*
X48740725Y-28958877D01*
X48739335Y-28957672D01*
X48731652Y-28956001D01*
X47381172Y-28956001D01*
X47368912Y-28957209D01*
X47313069Y-28968315D01*
X47290573Y-28977633D01*
X47227192Y-29019983D01*
X47209983Y-29037192D01*
X47167632Y-29100575D01*
X47158316Y-29123066D01*
X47147207Y-29178915D01*
X47146000Y-29191170D01*
X47146000Y-29487085D01*
X46853999Y-29487085D01*
X46853999Y-29191172D01*
X46852791Y-29178912D01*
X46841685Y-29123069D01*
X46832367Y-29100573D01*
X46790017Y-29037192D01*
X46772808Y-29019983D01*
X46709425Y-28977632D01*
X46686934Y-28968316D01*
X46631085Y-28957207D01*
X46618830Y-28956000D01*
X45272915Y-28956000D01*
X45257676Y-28960475D01*
X45256471Y-28961865D01*
X45254800Y-28969548D01*
X45254800Y-29487085D01*
X44645200Y-29487085D01*
X44645200Y-28974116D01*
X44640725Y-28958877D01*
X44639335Y-28957672D01*
X44631652Y-28956001D01*
X43281172Y-28956001D01*
X43268912Y-28957209D01*
X43213069Y-28968315D01*
X43190573Y-28977633D01*
X43127192Y-29019983D01*
X43109983Y-29037192D01*
X43067632Y-29100575D01*
X43058316Y-29123066D01*
X43047207Y-29178915D01*
X43046000Y-29191170D01*
X43046000Y-29487085D01*
X38903700Y-29487085D01*
X38903700Y-29189936D01*
X38891881Y-29130520D01*
X38846860Y-29063140D01*
X38795928Y-29029109D01*
X38789798Y-29025013D01*
X38789797Y-29025013D01*
X38779480Y-29018119D01*
X38720064Y-29006300D01*
X35379936Y-29006300D01*
X35320520Y-29018119D01*
X35310203Y-29025013D01*
X35310202Y-29025013D01*
X35304072Y-29029109D01*
X35253140Y-29063140D01*
X35208119Y-29130520D01*
X35196300Y-29189936D01*
X35196300Y-29746067D01*
X35176298Y-29814188D01*
X35159395Y-29835162D01*
X34882442Y-30112115D01*
X34820130Y-30146141D01*
X34793347Y-30149020D01*
X34060613Y-30149020D01*
X33992492Y-30129018D01*
X33945999Y-30075362D01*
X33935895Y-30005088D01*
X33965389Y-29940508D01*
X33971518Y-29933925D01*
X34804869Y-29100575D01*
X35794839Y-28110605D01*
X35857151Y-28076579D01*
X35883934Y-28073700D01*
X38720064Y-28073700D01*
X38779480Y-28061881D01*
X38846860Y-28016860D01*
X38891881Y-27949480D01*
X38903700Y-27890064D01*
X38903700Y-27888828D01*
X43046001Y-27888828D01*
X43047209Y-27901088D01*
X43058315Y-27956931D01*
X43067633Y-27979427D01*
X43109983Y-28042808D01*
X43127192Y-28060017D01*
X43190575Y-28102368D01*
X43213066Y-28111684D01*
X43268915Y-28122793D01*
X43281170Y-28124000D01*
X44627085Y-28124000D01*
X44642324Y-28119525D01*
X44643529Y-28118135D01*
X44645200Y-28110452D01*
X44645200Y-28105884D01*
X45254800Y-28105884D01*
X45259275Y-28121123D01*
X45260665Y-28122328D01*
X45268348Y-28123999D01*
X46618828Y-28123999D01*
X46631088Y-28122791D01*
X46686931Y-28111685D01*
X46709427Y-28102367D01*
X46772808Y-28060017D01*
X46790017Y-28042808D01*
X46832368Y-27979425D01*
X46841684Y-27956934D01*
X46852793Y-27901085D01*
X46854000Y-27888830D01*
X46854000Y-27888828D01*
X47146001Y-27888828D01*
X47147209Y-27901088D01*
X47158315Y-27956931D01*
X47167633Y-27979427D01*
X47209983Y-28042808D01*
X47227192Y-28060017D01*
X47290575Y-28102368D01*
X47313066Y-28111684D01*
X47368915Y-28122793D01*
X47381170Y-28124000D01*
X48727085Y-28124000D01*
X48742324Y-28119525D01*
X48743529Y-28118135D01*
X48745200Y-28110452D01*
X48745200Y-28105884D01*
X49354800Y-28105884D01*
X49359275Y-28121123D01*
X49360665Y-28122328D01*
X49368348Y-28123999D01*
X50718828Y-28123999D01*
X50731088Y-28122791D01*
X50786931Y-28111685D01*
X50809427Y-28102367D01*
X50872808Y-28060017D01*
X50890017Y-28042808D01*
X50932368Y-27979425D01*
X50941684Y-27956934D01*
X50952793Y-27901085D01*
X50954000Y-27888830D01*
X50954000Y-27592915D01*
X50949525Y-27577676D01*
X50948135Y-27576471D01*
X50940452Y-27574800D01*
X49372915Y-27574800D01*
X49357676Y-27579275D01*
X49356471Y-27580665D01*
X49354800Y-27588348D01*
X49354800Y-28105884D01*
X48745200Y-28105884D01*
X48745200Y-27592915D01*
X48740725Y-27577676D01*
X48739335Y-27576471D01*
X48731652Y-27574800D01*
X47164116Y-27574800D01*
X47148877Y-27579275D01*
X47147672Y-27580665D01*
X47146001Y-27588348D01*
X47146001Y-27888828D01*
X46854000Y-27888828D01*
X46854000Y-27592915D01*
X46849525Y-27577676D01*
X46848135Y-27576471D01*
X46840452Y-27574800D01*
X45272915Y-27574800D01*
X45257676Y-27579275D01*
X45256471Y-27580665D01*
X45254800Y-27588348D01*
X45254800Y-28105884D01*
X44645200Y-28105884D01*
X44645200Y-27592915D01*
X44640725Y-27577676D01*
X44639335Y-27576471D01*
X44631652Y-27574800D01*
X43064116Y-27574800D01*
X43048877Y-27579275D01*
X43047672Y-27580665D01*
X43046001Y-27588348D01*
X43046001Y-27888828D01*
X38903700Y-27888828D01*
X38903700Y-26947085D01*
X43046000Y-26947085D01*
X43050475Y-26962324D01*
X43051865Y-26963529D01*
X43059548Y-26965200D01*
X44627085Y-26965200D01*
X44642324Y-26960725D01*
X44643529Y-26959335D01*
X44645200Y-26951652D01*
X44645200Y-26947085D01*
X45254800Y-26947085D01*
X45259275Y-26962324D01*
X45260665Y-26963529D01*
X45268348Y-26965200D01*
X46835884Y-26965200D01*
X46851123Y-26960725D01*
X46852328Y-26959335D01*
X46853999Y-26951652D01*
X46853999Y-26947085D01*
X47146000Y-26947085D01*
X47150475Y-26962324D01*
X47151865Y-26963529D01*
X47159548Y-26965200D01*
X48727085Y-26965200D01*
X48742324Y-26960725D01*
X48743529Y-26959335D01*
X48745200Y-26951652D01*
X48745200Y-26947085D01*
X49354800Y-26947085D01*
X49359275Y-26962324D01*
X49360665Y-26963529D01*
X49368348Y-26965200D01*
X50935884Y-26965200D01*
X50951123Y-26960725D01*
X50952328Y-26959335D01*
X50953999Y-26951652D01*
X50953999Y-26651172D01*
X50952791Y-26638912D01*
X50941685Y-26583069D01*
X50932367Y-26560573D01*
X50890017Y-26497192D01*
X50872808Y-26479983D01*
X50809425Y-26437632D01*
X50786934Y-26428316D01*
X50731085Y-26417207D01*
X50718830Y-26416000D01*
X49372915Y-26416000D01*
X49357676Y-26420475D01*
X49356471Y-26421865D01*
X49354800Y-26429548D01*
X49354800Y-26947085D01*
X48745200Y-26947085D01*
X48745200Y-26434116D01*
X48740725Y-26418877D01*
X48739335Y-26417672D01*
X48731652Y-26416001D01*
X47381172Y-26416001D01*
X47368912Y-26417209D01*
X47313069Y-26428315D01*
X47290573Y-26437633D01*
X47227192Y-26479983D01*
X47209983Y-26497192D01*
X47167632Y-26560575D01*
X47158316Y-26583066D01*
X47147207Y-26638915D01*
X47146000Y-26651170D01*
X47146000Y-26947085D01*
X46853999Y-26947085D01*
X46853999Y-26651172D01*
X46852791Y-26638912D01*
X46841685Y-26583069D01*
X46832367Y-26560573D01*
X46790017Y-26497192D01*
X46772808Y-26479983D01*
X46709425Y-26437632D01*
X46686934Y-26428316D01*
X46631085Y-26417207D01*
X46618830Y-26416000D01*
X45272915Y-26416000D01*
X45257676Y-26420475D01*
X45256471Y-26421865D01*
X45254800Y-26429548D01*
X45254800Y-26947085D01*
X44645200Y-26947085D01*
X44645200Y-26434116D01*
X44640725Y-26418877D01*
X44639335Y-26417672D01*
X44631652Y-26416001D01*
X43281172Y-26416001D01*
X43268912Y-26417209D01*
X43213069Y-26428315D01*
X43190573Y-26437633D01*
X43127192Y-26479983D01*
X43109983Y-26497192D01*
X43067632Y-26560575D01*
X43058316Y-26583066D01*
X43047207Y-26638915D01*
X43046000Y-26651170D01*
X43046000Y-26947085D01*
X38903700Y-26947085D01*
X38903700Y-26649936D01*
X38891881Y-26590520D01*
X38846860Y-26523140D01*
X38779480Y-26478119D01*
X38720064Y-26466300D01*
X35379936Y-26466300D01*
X35320520Y-26478119D01*
X35253140Y-26523140D01*
X35208119Y-26590520D01*
X35196300Y-26649936D01*
X35196300Y-27506066D01*
X35176298Y-27574187D01*
X35159395Y-27595161D01*
X33248362Y-29506195D01*
X33186050Y-29540220D01*
X33159267Y-29543100D01*
X29260733Y-29543100D01*
X29192612Y-29523098D01*
X29171638Y-29506195D01*
X28268912Y-28603469D01*
X28234886Y-28541157D01*
X28233085Y-28530820D01*
X28218006Y-28416280D01*
X28216928Y-28408092D01*
X28158294Y-28266537D01*
X28065020Y-28144980D01*
X28058470Y-28139954D01*
X28058467Y-28139951D01*
X27950017Y-28056734D01*
X27950015Y-28056733D01*
X27943464Y-28051706D01*
X27844312Y-28010636D01*
X27809538Y-27996232D01*
X27809535Y-27996231D01*
X27801908Y-27993072D01*
X27778468Y-27989986D01*
X27699783Y-27979627D01*
X27650000Y-27973073D01*
X27600217Y-27979627D01*
X27521533Y-27989986D01*
X27498092Y-27993072D01*
X27356537Y-28051706D01*
X27234980Y-28144980D01*
X27141706Y-28266537D01*
X27083072Y-28408092D01*
X27063073Y-28560000D01*
X27064151Y-28568188D01*
X27080940Y-28695710D01*
X27083072Y-28711908D01*
X27141706Y-28853463D01*
X27188343Y-28914242D01*
X27221312Y-28957207D01*
X27234980Y-28975020D01*
X27241530Y-28980046D01*
X27241533Y-28980049D01*
X27349980Y-29063264D01*
X27349983Y-29063266D01*
X27356536Y-29068294D01*
X27358245Y-29069002D01*
X27405188Y-29118234D01*
X27418625Y-29187947D01*
X27392238Y-29253858D01*
X27334406Y-29295041D01*
X27309643Y-29300893D01*
X27293092Y-29303072D01*
X27151537Y-29361706D01*
X27029980Y-29454980D01*
X26936706Y-29576537D01*
X26878072Y-29718092D01*
X26858073Y-29870000D01*
X20502330Y-29870000D01*
X20504991Y-26145000D01*
X27725000Y-26145000D01*
X27725300Y-26148248D01*
X27725300Y-26148253D01*
X27754618Y-26465859D01*
X27755000Y-26470000D01*
X27755538Y-26472868D01*
X27755539Y-26472877D01*
X27786671Y-26638912D01*
X27815000Y-26790000D01*
X27815799Y-26792798D01*
X27815802Y-26792809D01*
X27873026Y-26993091D01*
X27875000Y-27000000D01*
X27876037Y-27002678D01*
X27876038Y-27002682D01*
X27993742Y-27306749D01*
X27995000Y-27310000D01*
X28034168Y-27395148D01*
X28104313Y-27547636D01*
X28110000Y-27560000D01*
X28112549Y-27563898D01*
X28112552Y-27563904D01*
X28215919Y-27721994D01*
X28280000Y-27820000D01*
X28281041Y-27821413D01*
X28281046Y-27821420D01*
X28380899Y-27956934D01*
X28420000Y-28010000D01*
X28575000Y-28210000D01*
X28577145Y-28212264D01*
X28577150Y-28212270D01*
X28738007Y-28382063D01*
X28755000Y-28400000D01*
X28773824Y-28416280D01*
X28937393Y-28557746D01*
X28937401Y-28557752D01*
X28940000Y-28560000D01*
X29230000Y-28760000D01*
X29317500Y-28810000D01*
X29507677Y-28918673D01*
X29507685Y-28918677D01*
X29510000Y-28920000D01*
X29512430Y-28921125D01*
X29768006Y-29039447D01*
X29780000Y-29045000D01*
X29783178Y-29046077D01*
X29783187Y-29046080D01*
X30087864Y-29149277D01*
X30087876Y-29149281D01*
X30090000Y-29150000D01*
X30320000Y-29210000D01*
X30322781Y-29210463D01*
X30322788Y-29210465D01*
X30459846Y-29233308D01*
X30530000Y-29245000D01*
X30750000Y-29270000D01*
X30995000Y-29280000D01*
X30998289Y-29279790D01*
X30998295Y-29279790D01*
X31228968Y-29265066D01*
X31228976Y-29265065D01*
X31230000Y-29265000D01*
X31273460Y-29260760D01*
X31432974Y-29245198D01*
X31432984Y-29245197D01*
X31435000Y-29245000D01*
X31437017Y-29244670D01*
X31706665Y-29200546D01*
X31706670Y-29200545D01*
X31710000Y-29200000D01*
X31902390Y-29146927D01*
X31997475Y-29120697D01*
X31997485Y-29120694D01*
X32000000Y-29120000D01*
X32140755Y-29068294D01*
X32242949Y-29030754D01*
X32242963Y-29030748D01*
X32245000Y-29030000D01*
X32254257Y-29025859D01*
X32433328Y-28945748D01*
X32435000Y-28945000D01*
X32695000Y-28810000D01*
X32698646Y-28807534D01*
X32773092Y-28757173D01*
X32865000Y-28695000D01*
X32866003Y-28694261D01*
X32866027Y-28694244D01*
X33052869Y-28556570D01*
X33055000Y-28555000D01*
X33255000Y-28380000D01*
X33400000Y-28225000D01*
X33435557Y-28185176D01*
X33523205Y-28087011D01*
X33523211Y-28087004D01*
X33525000Y-28085000D01*
X33629511Y-27945652D01*
X33630440Y-27944428D01*
X33777064Y-27753817D01*
X33777065Y-27753816D01*
X33780000Y-27750000D01*
X33782323Y-27745777D01*
X33889023Y-27551777D01*
X33889027Y-27551768D01*
X33890000Y-27550000D01*
X34005000Y-27305000D01*
X34100000Y-27065000D01*
X34170000Y-26835000D01*
X34224967Y-26583069D01*
X34229434Y-26562596D01*
X34229436Y-26562587D01*
X34230000Y-26560000D01*
X34240494Y-26479983D01*
X34269594Y-26258097D01*
X34269594Y-26258094D01*
X34270000Y-26255000D01*
X34273567Y-26140859D01*
X59720109Y-26140859D01*
X59720409Y-26144107D01*
X59720409Y-26144112D01*
X59747504Y-26437633D01*
X59750109Y-26465859D01*
X59750647Y-26468727D01*
X59750648Y-26468736D01*
X59752757Y-26479983D01*
X59810109Y-26785859D01*
X59810908Y-26788657D01*
X59810911Y-26788668D01*
X59860872Y-26963529D01*
X59870109Y-26995859D01*
X59871146Y-26998537D01*
X59871147Y-26998541D01*
X59988851Y-27302608D01*
X59990109Y-27305859D01*
X60046510Y-27428469D01*
X60101570Y-27548165D01*
X60105109Y-27555859D01*
X60107658Y-27559757D01*
X60107661Y-27559763D01*
X60130806Y-27595161D01*
X60275109Y-27815859D01*
X60276150Y-27817272D01*
X60276155Y-27817279D01*
X60370746Y-27945652D01*
X60415109Y-28005859D01*
X60570109Y-28205859D01*
X60572254Y-28208123D01*
X60572259Y-28208129D01*
X60737039Y-28382063D01*
X60750109Y-28395859D01*
X60773721Y-28416280D01*
X60932502Y-28553605D01*
X60932510Y-28553611D01*
X60935109Y-28555859D01*
X61225109Y-28755859D01*
X61312609Y-28805859D01*
X61502786Y-28914532D01*
X61502794Y-28914536D01*
X61505109Y-28915859D01*
X61507539Y-28916984D01*
X61751654Y-29030000D01*
X61775109Y-29040859D01*
X61778287Y-29041936D01*
X61778296Y-29041939D01*
X62082973Y-29145136D01*
X62082985Y-29145140D01*
X62085109Y-29145859D01*
X62315109Y-29205859D01*
X62317890Y-29206322D01*
X62317897Y-29206324D01*
X62454955Y-29229167D01*
X62525109Y-29240859D01*
X62745109Y-29265859D01*
X62990109Y-29275859D01*
X62993398Y-29275649D01*
X62993404Y-29275649D01*
X63224077Y-29260925D01*
X63224085Y-29260924D01*
X63225109Y-29260859D01*
X63261763Y-29257283D01*
X63428083Y-29241057D01*
X63428093Y-29241056D01*
X63430109Y-29240859D01*
X63432126Y-29240529D01*
X63701774Y-29196405D01*
X63701779Y-29196404D01*
X63705109Y-29195859D01*
X63897843Y-29142691D01*
X63992584Y-29116556D01*
X63992594Y-29116553D01*
X63995109Y-29115859D01*
X64128520Y-29066851D01*
X64238058Y-29026613D01*
X64238072Y-29026607D01*
X64240109Y-29025859D01*
X64257411Y-29018119D01*
X64428437Y-28941607D01*
X64430109Y-28940859D01*
X64690109Y-28805859D01*
X64860109Y-28690859D01*
X64861112Y-28690120D01*
X64861136Y-28690103D01*
X65047978Y-28552429D01*
X65050109Y-28550859D01*
X65250109Y-28375859D01*
X65395109Y-28220859D01*
X65457009Y-28151531D01*
X65518314Y-28082870D01*
X65518320Y-28082863D01*
X65520109Y-28080859D01*
X65624620Y-27941511D01*
X65625549Y-27940287D01*
X65772173Y-27749676D01*
X65772174Y-27749675D01*
X65775109Y-27745859D01*
X65788235Y-27721994D01*
X65884132Y-27547636D01*
X65884136Y-27547627D01*
X65885109Y-27545859D01*
X66000109Y-27300859D01*
X66095109Y-27060859D01*
X66165109Y-26830859D01*
X66203233Y-26656123D01*
X66224543Y-26558455D01*
X66224545Y-26558446D01*
X66225109Y-26555859D01*
X66236751Y-26467090D01*
X66264703Y-26253956D01*
X66264703Y-26253953D01*
X66265109Y-26250859D01*
X66269295Y-26116902D01*
X66275020Y-25933721D01*
X66275020Y-25933711D01*
X66275109Y-25930859D01*
X66262809Y-25725859D01*
X66260230Y-25682874D01*
X66260230Y-25682871D01*
X66260109Y-25680859D01*
X66225109Y-25400859D01*
X66166802Y-25155135D01*
X66156013Y-25109667D01*
X66156011Y-25109661D01*
X66155109Y-25105859D01*
X66015109Y-24730859D01*
X66014267Y-24728983D01*
X65906090Y-24488043D01*
X65906085Y-24488034D01*
X65905109Y-24485859D01*
X65791439Y-24276706D01*
X65781713Y-24258810D01*
X65781711Y-24258807D01*
X65780109Y-24255859D01*
X65635109Y-24045859D01*
X65537967Y-23926300D01*
X65506398Y-23887445D01*
X65506392Y-23887438D01*
X65505109Y-23885859D01*
X65315109Y-23680859D01*
X65135109Y-23510859D01*
X65073728Y-23460000D01*
X64962751Y-23368048D01*
X64962750Y-23368047D01*
X64960109Y-23365859D01*
X64826349Y-23277634D01*
X64726536Y-23211800D01*
X64726530Y-23211796D01*
X64725109Y-23210859D01*
X64723656Y-23210008D01*
X64723644Y-23210001D01*
X64643199Y-23162912D01*
X64520109Y-23090859D01*
X64255109Y-22965859D01*
X64252132Y-22964805D01*
X64252128Y-22964803D01*
X64016618Y-22881393D01*
X64016603Y-22881388D01*
X64015109Y-22880859D01*
X64013595Y-22880409D01*
X64013580Y-22880404D01*
X63897661Y-22845942D01*
X63830109Y-22825859D01*
X63620109Y-22780859D01*
X63465109Y-22750859D01*
X63436591Y-22747759D01*
X63237846Y-22726156D01*
X63237835Y-22726155D01*
X63235109Y-22725859D01*
X62995109Y-22720859D01*
X62990109Y-22720859D01*
X62954175Y-22721695D01*
X62778362Y-22725783D01*
X62778355Y-22725784D01*
X62775109Y-22725859D01*
X62771882Y-22726269D01*
X62771879Y-22726269D01*
X62462155Y-22765599D01*
X62462149Y-22765600D01*
X62460109Y-22765859D01*
X62458087Y-22766250D01*
X62458083Y-22766251D01*
X62153533Y-22825196D01*
X62153528Y-22825197D01*
X62150109Y-22825859D01*
X61925109Y-22895859D01*
X61570109Y-23040859D01*
X61150109Y-23275859D01*
X60920109Y-23455859D01*
X60620109Y-23735859D01*
X60618063Y-23738184D01*
X60408567Y-23976248D01*
X60400109Y-23985859D01*
X60135109Y-24390859D01*
X60015109Y-24620859D01*
X60013917Y-24623859D01*
X60013914Y-24623866D01*
X59871617Y-24982062D01*
X59870109Y-24985859D01*
X59869104Y-24989815D01*
X59869103Y-24989819D01*
X59791228Y-25296454D01*
X59790109Y-25300859D01*
X59789677Y-25303452D01*
X59789676Y-25303456D01*
X59781418Y-25353006D01*
X59755109Y-25510859D01*
X59754999Y-25511649D01*
X59754994Y-25511680D01*
X59744903Y-25583999D01*
X59725109Y-25725859D01*
X59725061Y-25729837D01*
X59725061Y-25729838D01*
X59722605Y-25933721D01*
X59720109Y-26140859D01*
X34273567Y-26140859D01*
X34280000Y-25935000D01*
X34267690Y-25729838D01*
X34265121Y-25687015D01*
X34265121Y-25687012D01*
X34265000Y-25685000D01*
X34230000Y-25405000D01*
X34175708Y-25176198D01*
X34160904Y-25113808D01*
X34160902Y-25113802D01*
X34160000Y-25110000D01*
X34020000Y-24735000D01*
X34018141Y-24730859D01*
X33910981Y-24492184D01*
X33910976Y-24492175D01*
X33910000Y-24490000D01*
X33832450Y-24347308D01*
X33786604Y-24262951D01*
X33786602Y-24262948D01*
X33785000Y-24260000D01*
X33640000Y-24050000D01*
X33569975Y-23963815D01*
X33511289Y-23891586D01*
X33511283Y-23891579D01*
X33510000Y-23890000D01*
X33320000Y-23685000D01*
X33317250Y-23682402D01*
X33141483Y-23516401D01*
X33140000Y-23515000D01*
X33136694Y-23512260D01*
X32967642Y-23372189D01*
X32967641Y-23372188D01*
X32965000Y-23370000D01*
X32833074Y-23282985D01*
X32731427Y-23215941D01*
X32731421Y-23215937D01*
X32730000Y-23215000D01*
X32728547Y-23214149D01*
X32728535Y-23214142D01*
X32648090Y-23167053D01*
X32525000Y-23095000D01*
X32260000Y-22970000D01*
X32257023Y-22968946D01*
X32257019Y-22968944D01*
X32021509Y-22885534D01*
X32021494Y-22885529D01*
X32020000Y-22885000D01*
X32018486Y-22884550D01*
X32018471Y-22884545D01*
X31902552Y-22850083D01*
X31835000Y-22830000D01*
X31625000Y-22785000D01*
X31470000Y-22755000D01*
X31431903Y-22750859D01*
X31242737Y-22730297D01*
X31242726Y-22730296D01*
X31240000Y-22730000D01*
X31000000Y-22725000D01*
X30995000Y-22725000D01*
X30961331Y-22725783D01*
X30783253Y-22729924D01*
X30783246Y-22729925D01*
X30780000Y-22730000D01*
X30776773Y-22730410D01*
X30776770Y-22730410D01*
X30467046Y-22769740D01*
X30467040Y-22769741D01*
X30465000Y-22770000D01*
X30462978Y-22770391D01*
X30462974Y-22770392D01*
X30158424Y-22829337D01*
X30158419Y-22829338D01*
X30155000Y-22830000D01*
X29930000Y-22900000D01*
X29575000Y-23045000D01*
X29155000Y-23280000D01*
X28925000Y-23460000D01*
X28625000Y-23740000D01*
X28622954Y-23742325D01*
X28444589Y-23945013D01*
X28405000Y-23990000D01*
X28140000Y-24395000D01*
X28020000Y-24625000D01*
X28018808Y-24628000D01*
X28018805Y-24628007D01*
X27878153Y-24982062D01*
X27875000Y-24990000D01*
X27873995Y-24993956D01*
X27873994Y-24993960D01*
X27796052Y-25300859D01*
X27795000Y-25305000D01*
X27794568Y-25307593D01*
X27794567Y-25307597D01*
X27787705Y-25348768D01*
X27760000Y-25515000D01*
X27759890Y-25515790D01*
X27759885Y-25515821D01*
X27750372Y-25583999D01*
X27730000Y-25730000D01*
X27729952Y-25733978D01*
X27729952Y-25733979D01*
X27727496Y-25937862D01*
X27725000Y-26145000D01*
X20504991Y-26145000D01*
X20505517Y-25408401D01*
X20505962Y-24785000D01*
X23183073Y-24785000D01*
X23203072Y-24936908D01*
X23261706Y-25078463D01*
X23282728Y-25105859D01*
X23320539Y-25155135D01*
X23354980Y-25200020D01*
X23361530Y-25205046D01*
X23361533Y-25205049D01*
X23469983Y-25288266D01*
X23476536Y-25293294D01*
X23511067Y-25307597D01*
X23610462Y-25348768D01*
X23610465Y-25348769D01*
X23618092Y-25351928D01*
X23770000Y-25371927D01*
X23778188Y-25370849D01*
X23913720Y-25353006D01*
X23921908Y-25351928D01*
X23929535Y-25348769D01*
X23929538Y-25348768D01*
X24028933Y-25307597D01*
X24063464Y-25293294D01*
X24185020Y-25200020D01*
X24190047Y-25193469D01*
X24195433Y-25188083D01*
X24245592Y-25157345D01*
X24248047Y-25156547D01*
X24261826Y-25152070D01*
X24280035Y-25138840D01*
X24296890Y-25128510D01*
X24316945Y-25118292D01*
X26492337Y-22942900D01*
X26554649Y-22908874D01*
X26625464Y-22913939D01*
X26682300Y-22956486D01*
X26697841Y-22983777D01*
X26701451Y-22992493D01*
X26726706Y-23053463D01*
X26819980Y-23175020D01*
X26826530Y-23180046D01*
X26826533Y-23180049D01*
X26934983Y-23263266D01*
X26941536Y-23268294D01*
X27012314Y-23297611D01*
X27075462Y-23323768D01*
X27075465Y-23323769D01*
X27083092Y-23326928D01*
X27235000Y-23346927D01*
X27243188Y-23345849D01*
X27378720Y-23328006D01*
X27386908Y-23326928D01*
X27394535Y-23323769D01*
X27394538Y-23323768D01*
X27457686Y-23297611D01*
X27528464Y-23268294D01*
X27535017Y-23263266D01*
X27643467Y-23180049D01*
X27643470Y-23180046D01*
X27650020Y-23175020D01*
X27743294Y-23053463D01*
X27801928Y-22911908D01*
X27818086Y-22789179D01*
X27846807Y-22724253D01*
X27853912Y-22716531D01*
X28106638Y-22463805D01*
X28168950Y-22429779D01*
X28195733Y-22426900D01*
X32899267Y-22426900D01*
X32967388Y-22446902D01*
X32988362Y-22463805D01*
X35159395Y-24634838D01*
X35193421Y-24697150D01*
X35196300Y-24723933D01*
X35196300Y-25350064D01*
X35208119Y-25409480D01*
X35253140Y-25476860D01*
X35320520Y-25521881D01*
X35379936Y-25533700D01*
X38720064Y-25533700D01*
X38779480Y-25521881D01*
X38846860Y-25476860D01*
X38891881Y-25409480D01*
X38903700Y-25350064D01*
X38903700Y-25348828D01*
X43046001Y-25348828D01*
X43047209Y-25361088D01*
X43058315Y-25416931D01*
X43067633Y-25439427D01*
X43109983Y-25502808D01*
X43127192Y-25520017D01*
X43190575Y-25562368D01*
X43213066Y-25571684D01*
X43268915Y-25582793D01*
X43281170Y-25584000D01*
X44627085Y-25584000D01*
X44642324Y-25579525D01*
X44643529Y-25578135D01*
X44645200Y-25570452D01*
X44645200Y-25565884D01*
X45254800Y-25565884D01*
X45259275Y-25581123D01*
X45260665Y-25582328D01*
X45268348Y-25583999D01*
X46618828Y-25583999D01*
X46631088Y-25582791D01*
X46686931Y-25571685D01*
X46709427Y-25562367D01*
X46772808Y-25520017D01*
X46790017Y-25502808D01*
X46832368Y-25439425D01*
X46841684Y-25416934D01*
X46852793Y-25361085D01*
X46854000Y-25348830D01*
X46854000Y-25348828D01*
X47146001Y-25348828D01*
X47147209Y-25361088D01*
X47158315Y-25416931D01*
X47167633Y-25439427D01*
X47209983Y-25502808D01*
X47227192Y-25520017D01*
X47290575Y-25562368D01*
X47313066Y-25571684D01*
X47368915Y-25582793D01*
X47381170Y-25584000D01*
X48727085Y-25584000D01*
X48742324Y-25579525D01*
X48743529Y-25578135D01*
X48745200Y-25570452D01*
X48745200Y-25565884D01*
X49354800Y-25565884D01*
X49359275Y-25581123D01*
X49360665Y-25582328D01*
X49368348Y-25583999D01*
X50718828Y-25583999D01*
X50731088Y-25582791D01*
X50786931Y-25571685D01*
X50809427Y-25562367D01*
X50872808Y-25520017D01*
X50890017Y-25502808D01*
X50932368Y-25439425D01*
X50941684Y-25416934D01*
X50952793Y-25361085D01*
X50953878Y-25350064D01*
X55096300Y-25350064D01*
X55108119Y-25409480D01*
X55153140Y-25476860D01*
X55220520Y-25521881D01*
X55279936Y-25533700D01*
X58620064Y-25533700D01*
X58679480Y-25521881D01*
X58746860Y-25476860D01*
X58791881Y-25409480D01*
X58803700Y-25350064D01*
X58803700Y-24723933D01*
X58823702Y-24655812D01*
X58840605Y-24634838D01*
X60985719Y-22489725D01*
X61048031Y-22455699D01*
X61074814Y-22452820D01*
X66288904Y-22452820D01*
X66357025Y-22472822D01*
X66405313Y-22530601D01*
X66441706Y-22618463D01*
X66446733Y-22625014D01*
X66527248Y-22729943D01*
X66534980Y-22740020D01*
X66541530Y-22745046D01*
X66541533Y-22745049D01*
X66649983Y-22828266D01*
X66656536Y-22833294D01*
X66714514Y-22857309D01*
X66790462Y-22888768D01*
X66790465Y-22888769D01*
X66798092Y-22891928D01*
X66806280Y-22893006D01*
X66855053Y-22899427D01*
X66950000Y-22911927D01*
X66958188Y-22910849D01*
X67093720Y-22893006D01*
X67101908Y-22891928D01*
X67109535Y-22888769D01*
X67109538Y-22888768D01*
X67185486Y-22857309D01*
X67243464Y-22833294D01*
X67250017Y-22828266D01*
X67358467Y-22745049D01*
X67358470Y-22745046D01*
X67365020Y-22740020D01*
X67372753Y-22729943D01*
X67453267Y-22625014D01*
X67458294Y-22618463D01*
X67516928Y-22476908D01*
X67517050Y-22476959D01*
X67551767Y-22419999D01*
X67615627Y-22388976D01*
X67686122Y-22397403D01*
X67725296Y-22423916D01*
X67729980Y-22430020D01*
X67763445Y-22455699D01*
X67822046Y-22500665D01*
X67851536Y-22523294D01*
X67922314Y-22552611D01*
X67985462Y-22578768D01*
X67985465Y-22578769D01*
X67993092Y-22581928D01*
X68145000Y-22601927D01*
X68153188Y-22600849D01*
X68288720Y-22583006D01*
X68296908Y-22581928D01*
X68304535Y-22578769D01*
X68304538Y-22578768D01*
X68367686Y-22552611D01*
X68438464Y-22523294D01*
X68445017Y-22518266D01*
X68553467Y-22435049D01*
X68553470Y-22435046D01*
X68560020Y-22430020D01*
X68567710Y-22419999D01*
X68648267Y-22315014D01*
X68653294Y-22308463D01*
X68711928Y-22166908D01*
X68731927Y-22015000D01*
X68711928Y-21863092D01*
X68653294Y-21721537D01*
X68560020Y-21599980D01*
X68553470Y-21594954D01*
X68553467Y-21594951D01*
X68445017Y-21511734D01*
X68445015Y-21511733D01*
X68438464Y-21506706D01*
X68367686Y-21477389D01*
X68304538Y-21451232D01*
X68304535Y-21451231D01*
X68296908Y-21448072D01*
X68174179Y-21431914D01*
X68109253Y-21403193D01*
X68101531Y-21396088D01*
X67812151Y-21106708D01*
X67792096Y-21096490D01*
X67775241Y-21086160D01*
X67765057Y-21078761D01*
X67757032Y-21072930D01*
X67747599Y-21069865D01*
X67747597Y-21069864D01*
X67735620Y-21065972D01*
X67717358Y-21058408D01*
X67706140Y-21052692D01*
X67706139Y-21052692D01*
X67697306Y-21048191D01*
X67675074Y-21044670D01*
X67655848Y-21040054D01*
X67643879Y-21036165D01*
X67634446Y-21033100D01*
X58960553Y-21033100D01*
X58941338Y-21039343D01*
X58939150Y-21040054D01*
X58919930Y-21044668D01*
X58907490Y-21046639D01*
X58907487Y-21046640D01*
X58897694Y-21048191D01*
X58877641Y-21058409D01*
X58859380Y-21065973D01*
X58837968Y-21072930D01*
X58829944Y-21078760D01*
X58829942Y-21078761D01*
X58819759Y-21086160D01*
X58802904Y-21096490D01*
X58782849Y-21106708D01*
X58540162Y-21349395D01*
X58477850Y-21383421D01*
X58451067Y-21386300D01*
X55279936Y-21386300D01*
X55220520Y-21398119D01*
X55153140Y-21443140D01*
X55108119Y-21510520D01*
X55096300Y-21569936D01*
X55096300Y-22810064D01*
X55108119Y-22869480D01*
X55115013Y-22879797D01*
X55115013Y-22879798D01*
X55126430Y-22896885D01*
X55153140Y-22936860D01*
X55220520Y-22981881D01*
X55279936Y-22993700D01*
X58620064Y-22993700D01*
X58679480Y-22981881D01*
X58746860Y-22936860D01*
X58773570Y-22896885D01*
X58784987Y-22879798D01*
X58784987Y-22879797D01*
X58791881Y-22869480D01*
X58803700Y-22810064D01*
X58803700Y-22288933D01*
X58823702Y-22220812D01*
X58840605Y-22199838D01*
X59156638Y-21883805D01*
X59218950Y-21849779D01*
X59245733Y-21846900D01*
X60173466Y-21846900D01*
X60241587Y-21866902D01*
X60288080Y-21920558D01*
X60298184Y-21990832D01*
X60268690Y-22055412D01*
X60262561Y-22061995D01*
X58435162Y-23889395D01*
X58372850Y-23923420D01*
X58346067Y-23926300D01*
X55279936Y-23926300D01*
X55220520Y-23938119D01*
X55153140Y-23983140D01*
X55108119Y-24050520D01*
X55096300Y-24109936D01*
X55096300Y-25350064D01*
X50953878Y-25350064D01*
X50954000Y-25348830D01*
X50954000Y-25052915D01*
X50949525Y-25037676D01*
X50948135Y-25036471D01*
X50940452Y-25034800D01*
X49372915Y-25034800D01*
X49357676Y-25039275D01*
X49356471Y-25040665D01*
X49354800Y-25048348D01*
X49354800Y-25565884D01*
X48745200Y-25565884D01*
X48745200Y-25052915D01*
X48740725Y-25037676D01*
X48739335Y-25036471D01*
X48731652Y-25034800D01*
X47164116Y-25034800D01*
X47148877Y-25039275D01*
X47147672Y-25040665D01*
X47146001Y-25048348D01*
X47146001Y-25348828D01*
X46854000Y-25348828D01*
X46854000Y-25052915D01*
X46849525Y-25037676D01*
X46848135Y-25036471D01*
X46840452Y-25034800D01*
X45272915Y-25034800D01*
X45257676Y-25039275D01*
X45256471Y-25040665D01*
X45254800Y-25048348D01*
X45254800Y-25565884D01*
X44645200Y-25565884D01*
X44645200Y-25052915D01*
X44640725Y-25037676D01*
X44639335Y-25036471D01*
X44631652Y-25034800D01*
X43064116Y-25034800D01*
X43048877Y-25039275D01*
X43047672Y-25040665D01*
X43046001Y-25048348D01*
X43046001Y-25348828D01*
X38903700Y-25348828D01*
X38903700Y-24407085D01*
X43046000Y-24407085D01*
X43050475Y-24422324D01*
X43051865Y-24423529D01*
X43059548Y-24425200D01*
X44627085Y-24425200D01*
X44642324Y-24420725D01*
X44643529Y-24419335D01*
X44645200Y-24411652D01*
X44645200Y-24407085D01*
X45254800Y-24407085D01*
X45259275Y-24422324D01*
X45260665Y-24423529D01*
X45268348Y-24425200D01*
X46835884Y-24425200D01*
X46851123Y-24420725D01*
X46852328Y-24419335D01*
X46853999Y-24411652D01*
X46853999Y-24407085D01*
X47146000Y-24407085D01*
X47150475Y-24422324D01*
X47151865Y-24423529D01*
X47159548Y-24425200D01*
X48727085Y-24425200D01*
X48742324Y-24420725D01*
X48743529Y-24419335D01*
X48745200Y-24411652D01*
X48745200Y-24407085D01*
X49354800Y-24407085D01*
X49359275Y-24422324D01*
X49360665Y-24423529D01*
X49368348Y-24425200D01*
X50935884Y-24425200D01*
X50951123Y-24420725D01*
X50952328Y-24419335D01*
X50953999Y-24411652D01*
X50953999Y-24111172D01*
X50952791Y-24098912D01*
X50941685Y-24043069D01*
X50932367Y-24020573D01*
X50890017Y-23957192D01*
X50872808Y-23939983D01*
X50809425Y-23897632D01*
X50786934Y-23888316D01*
X50731085Y-23877207D01*
X50718830Y-23876000D01*
X49372915Y-23876000D01*
X49357676Y-23880475D01*
X49356471Y-23881865D01*
X49354800Y-23889548D01*
X49354800Y-24407085D01*
X48745200Y-24407085D01*
X48745200Y-23894116D01*
X48740725Y-23878877D01*
X48739335Y-23877672D01*
X48731652Y-23876001D01*
X47381172Y-23876001D01*
X47368912Y-23877209D01*
X47313069Y-23888315D01*
X47290573Y-23897633D01*
X47227192Y-23939983D01*
X47209983Y-23957192D01*
X47167632Y-24020575D01*
X47158316Y-24043066D01*
X47147207Y-24098915D01*
X47146000Y-24111170D01*
X47146000Y-24407085D01*
X46853999Y-24407085D01*
X46853999Y-24111172D01*
X46852791Y-24098912D01*
X46841685Y-24043069D01*
X46832367Y-24020573D01*
X46790017Y-23957192D01*
X46772808Y-23939983D01*
X46709425Y-23897632D01*
X46686934Y-23888316D01*
X46631085Y-23877207D01*
X46618830Y-23876000D01*
X45272915Y-23876000D01*
X45257676Y-23880475D01*
X45256471Y-23881865D01*
X45254800Y-23889548D01*
X45254800Y-24407085D01*
X44645200Y-24407085D01*
X44645200Y-23894116D01*
X44640725Y-23878877D01*
X44639335Y-23877672D01*
X44631652Y-23876001D01*
X43281172Y-23876001D01*
X43268912Y-23877209D01*
X43213069Y-23888315D01*
X43190573Y-23897633D01*
X43127192Y-23939983D01*
X43109983Y-23957192D01*
X43067632Y-24020575D01*
X43058316Y-24043066D01*
X43047207Y-24098915D01*
X43046000Y-24111170D01*
X43046000Y-24407085D01*
X38903700Y-24407085D01*
X38903700Y-24109936D01*
X38891881Y-24050520D01*
X38846860Y-23983140D01*
X38779480Y-23938119D01*
X38720064Y-23926300D01*
X35653933Y-23926300D01*
X35585812Y-23906298D01*
X35564838Y-23889395D01*
X33711518Y-22036075D01*
X33677492Y-21973763D01*
X33682557Y-21902948D01*
X33725104Y-21846112D01*
X33791624Y-21821301D01*
X33800613Y-21820980D01*
X34728347Y-21820980D01*
X34796468Y-21840982D01*
X34817442Y-21857885D01*
X35159395Y-22199838D01*
X35193421Y-22262150D01*
X35196300Y-22288933D01*
X35196300Y-22810064D01*
X35208119Y-22869480D01*
X35215013Y-22879797D01*
X35215013Y-22879798D01*
X35226430Y-22896885D01*
X35253140Y-22936860D01*
X35320520Y-22981881D01*
X35379936Y-22993700D01*
X38720064Y-22993700D01*
X38779480Y-22981881D01*
X38846860Y-22936860D01*
X38873570Y-22896885D01*
X38884987Y-22879798D01*
X38884987Y-22879797D01*
X38891881Y-22869480D01*
X38903700Y-22810064D01*
X38903700Y-22808828D01*
X43046001Y-22808828D01*
X43047209Y-22821088D01*
X43058315Y-22876931D01*
X43067633Y-22899427D01*
X43109983Y-22962808D01*
X43127192Y-22980017D01*
X43190575Y-23022368D01*
X43213066Y-23031684D01*
X43268915Y-23042793D01*
X43281170Y-23044000D01*
X44627085Y-23044000D01*
X44642324Y-23039525D01*
X44643529Y-23038135D01*
X44645200Y-23030452D01*
X44645200Y-23025884D01*
X45254800Y-23025884D01*
X45259275Y-23041123D01*
X45260665Y-23042328D01*
X45268348Y-23043999D01*
X46618828Y-23043999D01*
X46631088Y-23042791D01*
X46686931Y-23031685D01*
X46709427Y-23022367D01*
X46772808Y-22980017D01*
X46790017Y-22962808D01*
X46832368Y-22899425D01*
X46841684Y-22876934D01*
X46852793Y-22821085D01*
X46854000Y-22808830D01*
X46854000Y-22808828D01*
X47146001Y-22808828D01*
X47147209Y-22821088D01*
X47158315Y-22876931D01*
X47167633Y-22899427D01*
X47209983Y-22962808D01*
X47227192Y-22980017D01*
X47290575Y-23022368D01*
X47313066Y-23031684D01*
X47368915Y-23042793D01*
X47381170Y-23044000D01*
X48727085Y-23044000D01*
X48742324Y-23039525D01*
X48743529Y-23038135D01*
X48745200Y-23030452D01*
X48745200Y-23025884D01*
X49354800Y-23025884D01*
X49359275Y-23041123D01*
X49360665Y-23042328D01*
X49368348Y-23043999D01*
X50718828Y-23043999D01*
X50731088Y-23042791D01*
X50786931Y-23031685D01*
X50809427Y-23022367D01*
X50872808Y-22980017D01*
X50890017Y-22962808D01*
X50932368Y-22899425D01*
X50941684Y-22876934D01*
X50952793Y-22821085D01*
X50954000Y-22808830D01*
X50954000Y-22512915D01*
X50949525Y-22497676D01*
X50948135Y-22496471D01*
X50940452Y-22494800D01*
X49372915Y-22494800D01*
X49357676Y-22499275D01*
X49356471Y-22500665D01*
X49354800Y-22508348D01*
X49354800Y-23025884D01*
X48745200Y-23025884D01*
X48745200Y-22512915D01*
X48740725Y-22497676D01*
X48739335Y-22496471D01*
X48731652Y-22494800D01*
X47164116Y-22494800D01*
X47148877Y-22499275D01*
X47147672Y-22500665D01*
X47146001Y-22508348D01*
X47146001Y-22808828D01*
X46854000Y-22808828D01*
X46854000Y-22512915D01*
X46849525Y-22497676D01*
X46848135Y-22496471D01*
X46840452Y-22494800D01*
X45272915Y-22494800D01*
X45257676Y-22499275D01*
X45256471Y-22500665D01*
X45254800Y-22508348D01*
X45254800Y-23025884D01*
X44645200Y-23025884D01*
X44645200Y-22512915D01*
X44640725Y-22497676D01*
X44639335Y-22496471D01*
X44631652Y-22494800D01*
X43064116Y-22494800D01*
X43048877Y-22499275D01*
X43047672Y-22500665D01*
X43046001Y-22508348D01*
X43046001Y-22808828D01*
X38903700Y-22808828D01*
X38903700Y-21867085D01*
X43046000Y-21867085D01*
X43050475Y-21882324D01*
X43051865Y-21883529D01*
X43059548Y-21885200D01*
X44627085Y-21885200D01*
X44642324Y-21880725D01*
X44643529Y-21879335D01*
X44645200Y-21871652D01*
X44645200Y-21867085D01*
X45254800Y-21867085D01*
X45259275Y-21882324D01*
X45260665Y-21883529D01*
X45268348Y-21885200D01*
X46835884Y-21885200D01*
X46851123Y-21880725D01*
X46852328Y-21879335D01*
X46853999Y-21871652D01*
X46853999Y-21867085D01*
X47146000Y-21867085D01*
X47150475Y-21882324D01*
X47151865Y-21883529D01*
X47159548Y-21885200D01*
X48727085Y-21885200D01*
X48742324Y-21880725D01*
X48743529Y-21879335D01*
X48745200Y-21871652D01*
X48745200Y-21867085D01*
X49354800Y-21867085D01*
X49359275Y-21882324D01*
X49360665Y-21883529D01*
X49368348Y-21885200D01*
X50935884Y-21885200D01*
X50951123Y-21880725D01*
X50952328Y-21879335D01*
X50953999Y-21871652D01*
X50953999Y-21571172D01*
X50952791Y-21558912D01*
X50941685Y-21503069D01*
X50932367Y-21480573D01*
X50890017Y-21417192D01*
X50872808Y-21399983D01*
X50809425Y-21357632D01*
X50786934Y-21348316D01*
X50731085Y-21337207D01*
X50718830Y-21336000D01*
X49372915Y-21336000D01*
X49357676Y-21340475D01*
X49356471Y-21341865D01*
X49354800Y-21349548D01*
X49354800Y-21867085D01*
X48745200Y-21867085D01*
X48745200Y-21354116D01*
X48740725Y-21338877D01*
X48739335Y-21337672D01*
X48731652Y-21336001D01*
X47381172Y-21336001D01*
X47368912Y-21337209D01*
X47313069Y-21348315D01*
X47290573Y-21357633D01*
X47227192Y-21399983D01*
X47209983Y-21417192D01*
X47167632Y-21480575D01*
X47158316Y-21503066D01*
X47147207Y-21558915D01*
X47146000Y-21571170D01*
X47146000Y-21867085D01*
X46853999Y-21867085D01*
X46853999Y-21571172D01*
X46852791Y-21558912D01*
X46841685Y-21503069D01*
X46832367Y-21480573D01*
X46790017Y-21417192D01*
X46772808Y-21399983D01*
X46709425Y-21357632D01*
X46686934Y-21348316D01*
X46631085Y-21337207D01*
X46618830Y-21336000D01*
X45272915Y-21336000D01*
X45257676Y-21340475D01*
X45256471Y-21341865D01*
X45254800Y-21349548D01*
X45254800Y-21867085D01*
X44645200Y-21867085D01*
X44645200Y-21354116D01*
X44640725Y-21338877D01*
X44639335Y-21337672D01*
X44631652Y-21336001D01*
X43281172Y-21336001D01*
X43268912Y-21337209D01*
X43213069Y-21348315D01*
X43190573Y-21357633D01*
X43127192Y-21399983D01*
X43109983Y-21417192D01*
X43067632Y-21480575D01*
X43058316Y-21503066D01*
X43047207Y-21558915D01*
X43046000Y-21571170D01*
X43046000Y-21867085D01*
X38903700Y-21867085D01*
X38903700Y-21569936D01*
X38891881Y-21510520D01*
X38846860Y-21443140D01*
X38779480Y-21398119D01*
X38720064Y-21386300D01*
X35548933Y-21386300D01*
X35480812Y-21366298D01*
X35459838Y-21349395D01*
X35191231Y-21080788D01*
X35171176Y-21070570D01*
X35154321Y-21060240D01*
X35144137Y-21052841D01*
X35136112Y-21047010D01*
X35126679Y-21043945D01*
X35126677Y-21043944D01*
X35114700Y-21040052D01*
X35096438Y-21032488D01*
X35085220Y-21026772D01*
X35085219Y-21026772D01*
X35076386Y-21022271D01*
X35054154Y-21018750D01*
X35034928Y-21014134D01*
X35022959Y-21010245D01*
X35013526Y-21007180D01*
X27381268Y-21007180D01*
X27371835Y-21010245D01*
X27359866Y-21014134D01*
X27340640Y-21018750D01*
X27318408Y-21022271D01*
X27309575Y-21026772D01*
X27309574Y-21026772D01*
X27298356Y-21032488D01*
X27280094Y-21040052D01*
X27268117Y-21043944D01*
X27268115Y-21043945D01*
X27258682Y-21047010D01*
X27250657Y-21052841D01*
X27240473Y-21060240D01*
X27223618Y-21070570D01*
X27203563Y-21080788D01*
X24083526Y-24200825D01*
X24021214Y-24234851D01*
X23946215Y-24228140D01*
X23929537Y-24221232D01*
X23921908Y-24218072D01*
X23770000Y-24198073D01*
X23618092Y-24218072D01*
X23476537Y-24276706D01*
X23354980Y-24369980D01*
X23261706Y-24491537D01*
X23203072Y-24633092D01*
X23201994Y-24641280D01*
X23194639Y-24697150D01*
X23183073Y-24785000D01*
X20505962Y-24785000D01*
X20509376Y-20005473D01*
X20509991Y-19993129D01*
X20527493Y-19816640D01*
X20532325Y-19792428D01*
X20582098Y-19628690D01*
X20591558Y-19605886D01*
X20672305Y-19454997D01*
X20686031Y-19434474D01*
X20794654Y-19302225D01*
X20812118Y-19284774D01*
X20944442Y-19176247D01*
X20964973Y-19162537D01*
X21115921Y-19081897D01*
X21138732Y-19072453D01*
X21302504Y-19022797D01*
X21326720Y-19017982D01*
X21503224Y-19000606D01*
X21515568Y-19000000D01*
X72494171Y-19000000D01*
X72506518Y-19000606D01*
G37*
%TD.AperFunction*%
%TD*%
M02*
