%TF.GenerationSoftware,KiCad,Pcbnew,(6.0.0)*%
%TF.CreationDate,2022-08-06T01:30:50-04:00*%
%TF.ProjectId,port PWR extention,706f7274-2050-4575-9220-657874656e74,rev?*%
%TF.SameCoordinates,Original*%
%TF.FileFunction,Copper,L2,Bot*%
%TF.FilePolarity,Positive*%
%FSLAX46Y46*%
G04 Gerber Fmt 4.6, Leading zero omitted, Abs format (unit mm)*
G04 Created by KiCad (PCBNEW (6.0.0)) date 2022-08-06 01:30:50*
%MOMM*%
%LPD*%
G01*
G04 APERTURE LIST*
G04 Aperture macros list*
%AMRoundRect*
0 Rectangle with rounded corners*
0 $1 Rounding radius*
0 $2 $3 $4 $5 $6 $7 $8 $9 X,Y pos of 4 corners*
0 Add a 4 corners polygon primitive as box body*
4,1,4,$2,$3,$4,$5,$6,$7,$8,$9,$2,$3,0*
0 Add four circle primitives for the rounded corners*
1,1,$1+$1,$2,$3*
1,1,$1+$1,$4,$5*
1,1,$1+$1,$6,$7*
1,1,$1+$1,$8,$9*
0 Add four rect primitives between the rounded corners*
20,1,$1+$1,$2,$3,$4,$5,0*
20,1,$1+$1,$4,$5,$6,$7,0*
20,1,$1+$1,$6,$7,$8,$9,0*
20,1,$1+$1,$8,$9,$2,$3,0*%
G04 Aperture macros list end*
%TA.AperFunction,SMDPad,CuDef*%
%ADD10RoundRect,0.150000X0.700000X-0.150000X0.700000X0.150000X-0.700000X0.150000X-0.700000X-0.150000X0*%
%TD*%
%TA.AperFunction,SMDPad,CuDef*%
%ADD11RoundRect,0.250000X1.100000X-0.250000X1.100000X0.250000X-1.100000X0.250000X-1.100000X-0.250000X0*%
%TD*%
%TA.AperFunction,SMDPad,CuDef*%
%ADD12RoundRect,0.150000X-0.700000X0.150000X-0.700000X-0.150000X0.700000X-0.150000X0.700000X0.150000X0*%
%TD*%
%TA.AperFunction,SMDPad,CuDef*%
%ADD13RoundRect,0.250000X-1.100000X0.250000X-1.100000X-0.250000X1.100000X-0.250000X1.100000X0.250000X0*%
%TD*%
%TA.AperFunction,ViaPad*%
%ADD14C,0.756412*%
%TD*%
%TA.AperFunction,ViaPad*%
%ADD15C,0.800000*%
%TD*%
%TA.AperFunction,Conductor*%
%ADD16C,0.406400*%
%TD*%
G04 APERTURE END LIST*
D10*
%TO.P,J6,1,Pin_1*%
%TO.N,pw1*%
X25350000Y-28500000D03*
%TO.P,J6,2,Pin_2*%
%TO.N,pw2*%
X25350000Y-27250000D03*
%TO.P,J6,3,Pin_3*%
%TO.N,pw3*%
X25350000Y-26000000D03*
%TO.P,J6,4,Pin_4*%
%TO.N,pw4*%
X25350000Y-24750000D03*
%TO.P,J6,5,Pin_5*%
%TO.N,GNDREF*%
X25350000Y-23500000D03*
D11*
%TO.P,J6,MP,MountPin*%
X22150000Y-21650000D03*
X22150000Y-30350000D03*
%TD*%
D12*
%TO.P,J5,1,Pin_1*%
%TO.N,pw5*%
X68650000Y-23500000D03*
%TO.P,J5,2,Pin_2*%
%TO.N,pw6*%
X68650000Y-24750000D03*
%TO.P,J5,3,Pin_3*%
%TO.N,pw7*%
X68650000Y-26000000D03*
%TO.P,J5,4,Pin_4*%
%TO.N,pw8*%
X68650000Y-27250000D03*
%TO.P,J5,5,Pin_5*%
%TO.N,GNDREF*%
X68650000Y-28500000D03*
D13*
%TO.P,J5,MP,MountPin*%
X71850000Y-21650000D03*
X71850000Y-30350000D03*
%TD*%
D14*
%TO.N,pw1*%
X27445000Y-29870000D03*
%TO.N,pw2*%
X27650000Y-28560000D03*
%TO.N,pw3*%
X27235000Y-22760000D03*
%TO.N,pw4*%
X23770000Y-24785000D03*
D15*
%TO.N,GNDREF*%
X41000000Y-23500000D03*
X41000000Y-28500000D03*
X72000000Y-24000000D03*
X53000000Y-23500000D03*
X22000000Y-28000000D03*
X72000000Y-28000000D03*
X22000000Y-24000000D03*
X53000000Y-26000000D03*
X41000000Y-26000000D03*
X53000000Y-28500000D03*
D14*
%TO.N,pw5*%
X68145000Y-22015000D03*
%TO.N,pw6*%
X66950000Y-22325000D03*
%TO.N,pw7*%
X66615000Y-28290000D03*
%TO.N,pw8*%
X70345000Y-27385000D03*
%TD*%
D16*
%TO.N,pw1*%
X26720000Y-29870000D02*
X25350000Y-28500000D01*
X27445000Y-29870000D02*
X26720000Y-29870000D01*
%TO.N,pw2*%
X26185000Y-27250000D02*
X25350000Y-27250000D01*
X27495000Y-28560000D02*
X26185000Y-27250000D01*
X27650000Y-28560000D02*
X27495000Y-28560000D01*
%TO.N,pw3*%
X27110000Y-23610000D02*
X27110000Y-22885000D01*
X25350000Y-26000000D02*
X26255000Y-26000000D01*
X26255000Y-26000000D02*
X26910000Y-25345000D01*
X27110000Y-22885000D02*
X27235000Y-22760000D01*
X26910000Y-25345000D02*
X27110000Y-25145000D01*
X27110000Y-25145000D02*
X27110000Y-23610000D01*
%TO.N,pw4*%
X25350000Y-24750000D02*
X23805000Y-24750000D01*
X23805000Y-24750000D02*
X23770000Y-24785000D01*
%TO.N,pw5*%
X68650000Y-22520000D02*
X68650000Y-23500000D01*
X68145000Y-22015000D02*
X68650000Y-22520000D01*
%TO.N,pw6*%
X68650000Y-24750000D02*
X67825000Y-24750000D01*
X67825000Y-24750000D02*
X67005000Y-23930000D01*
X67005000Y-23930000D02*
X66950000Y-23875000D01*
X66950000Y-23875000D02*
X66950000Y-22325000D01*
%TO.N,pw7*%
X67780000Y-26000000D02*
X67585000Y-26195000D01*
X67055000Y-27670000D02*
X67055000Y-27850000D01*
X67055000Y-26725000D02*
X67055000Y-26970000D01*
X67585000Y-26195000D02*
X67055000Y-26725000D01*
X68650000Y-26000000D02*
X67780000Y-26000000D01*
X67055000Y-27850000D02*
X66615000Y-28290000D01*
X67055000Y-26970000D02*
X67055000Y-27670000D01*
%TO.N,pw8*%
X70210000Y-27250000D02*
X70345000Y-27385000D01*
X68650000Y-27250000D02*
X70210000Y-27250000D01*
%TD*%
%TA.AperFunction,Conductor*%
%TO.N,GNDREF*%
G36*
X72506518Y-19000606D02*
G01*
X72683067Y-19017991D01*
X72707281Y-19022806D01*
X72780542Y-19045024D01*
X72871091Y-19072486D01*
X72893906Y-19081934D01*
X73044878Y-19162608D01*
X73065412Y-19176324D01*
X73120956Y-19221892D01*
X73197754Y-19284898D01*
X73215213Y-19302351D01*
X73323836Y-19434655D01*
X73337558Y-19455180D01*
X73418287Y-19606122D01*
X73427744Y-19628935D01*
X73477482Y-19792727D01*
X73482307Y-19816945D01*
X73499755Y-19993477D01*
X73500366Y-20005824D01*
X73500703Y-20930905D01*
X73480726Y-20999033D01*
X73427087Y-21045546D01*
X73356817Y-21055675D01*
X73299138Y-21031777D01*
X73201704Y-20958754D01*
X73186118Y-20950222D01*
X73066735Y-20905467D01*
X73051490Y-20901842D01*
X73001108Y-20896369D01*
X72994294Y-20896000D01*
X72172915Y-20896000D01*
X72157676Y-20900475D01*
X72156471Y-20901865D01*
X72154800Y-20909548D01*
X72154800Y-22385884D01*
X72159275Y-22401123D01*
X72160665Y-22402328D01*
X72168348Y-22403999D01*
X72994292Y-22403999D01*
X73001110Y-22403630D01*
X73051482Y-22398159D01*
X73066741Y-22394530D01*
X73186118Y-22349778D01*
X73201704Y-22341246D01*
X73299662Y-22267830D01*
X73366168Y-22242982D01*
X73435551Y-22258035D01*
X73485781Y-22308209D01*
X73501227Y-22368608D01*
X73503862Y-29605467D01*
X73503872Y-29633280D01*
X73483895Y-29701408D01*
X73430256Y-29747921D01*
X73359986Y-29758050D01*
X73302307Y-29734152D01*
X73201704Y-29658754D01*
X73186118Y-29650222D01*
X73066735Y-29605467D01*
X73051490Y-29601842D01*
X73001108Y-29596369D01*
X72994294Y-29596000D01*
X72172915Y-29596000D01*
X72157676Y-29600475D01*
X72156471Y-29601865D01*
X72154800Y-29609548D01*
X72154800Y-31085884D01*
X72159275Y-31101123D01*
X72160665Y-31102328D01*
X72168348Y-31103999D01*
X72994292Y-31103999D01*
X73001110Y-31103630D01*
X73051482Y-31098159D01*
X73066741Y-31094530D01*
X73186118Y-31049778D01*
X73201704Y-31041245D01*
X73302829Y-30965457D01*
X73369336Y-30940609D01*
X73438718Y-30955662D01*
X73488948Y-31005837D01*
X73504394Y-31066236D01*
X73504728Y-31983724D01*
X73504126Y-31996076D01*
X73486794Y-32172685D01*
X73481983Y-32196915D01*
X73432330Y-32360795D01*
X73422886Y-32383615D01*
X73342209Y-32534663D01*
X73328498Y-32555197D01*
X73264997Y-32632618D01*
X73219903Y-32687597D01*
X73202441Y-32705069D01*
X73070105Y-32813734D01*
X73049568Y-32827464D01*
X72898570Y-32908221D01*
X72875750Y-32917679D01*
X72711905Y-32967421D01*
X72687678Y-32972246D01*
X72651795Y-32975787D01*
X72511078Y-32989675D01*
X72498727Y-32990284D01*
X31906351Y-32997942D01*
X21507189Y-32999904D01*
X21494838Y-32999299D01*
X21388744Y-32988864D01*
X21318147Y-32981920D01*
X21293908Y-32977100D01*
X21261998Y-32967421D01*
X21129972Y-32927375D01*
X21107143Y-32917918D01*
X20956061Y-32837144D01*
X20935517Y-32823412D01*
X20933324Y-32821611D01*
X20803115Y-32714707D01*
X20785644Y-32697227D01*
X20677004Y-32564762D01*
X20663281Y-32544208D01*
X20582589Y-32393087D01*
X20573143Y-32370249D01*
X20523504Y-32206290D01*
X20518697Y-32182048D01*
X20501412Y-32005360D01*
X20500813Y-31993002D01*
X20500816Y-31989919D01*
X20501472Y-31070588D01*
X20521523Y-31002483D01*
X20575212Y-30956028D01*
X20645493Y-30945974D01*
X20703037Y-30969853D01*
X20798296Y-31041246D01*
X20813882Y-31049778D01*
X20933265Y-31094533D01*
X20948510Y-31098158D01*
X20998892Y-31103631D01*
X21005706Y-31104000D01*
X21827085Y-31104000D01*
X21842324Y-31099525D01*
X21843529Y-31098135D01*
X21845200Y-31090452D01*
X21845200Y-31085884D01*
X22454800Y-31085884D01*
X22459275Y-31101123D01*
X22460665Y-31102328D01*
X22468348Y-31103999D01*
X23294292Y-31103999D01*
X23301110Y-31103630D01*
X23351482Y-31098159D01*
X23366741Y-31094530D01*
X23486118Y-31049778D01*
X23501704Y-31041246D01*
X23602867Y-30965428D01*
X23615428Y-30952867D01*
X23691246Y-30851704D01*
X23699778Y-30836118D01*
X23744533Y-30716735D01*
X23748158Y-30701489D01*
X23751273Y-30672811D01*
X23751075Y-30671707D01*
X70248607Y-30671707D01*
X70251841Y-30701482D01*
X70255470Y-30716741D01*
X70300222Y-30836118D01*
X70308754Y-30851704D01*
X70384572Y-30952867D01*
X70397133Y-30965428D01*
X70498296Y-31041246D01*
X70513882Y-31049778D01*
X70633265Y-31094533D01*
X70648510Y-31098158D01*
X70698892Y-31103631D01*
X70705706Y-31104000D01*
X71527085Y-31104000D01*
X71542324Y-31099525D01*
X71543529Y-31098135D01*
X71545200Y-31090452D01*
X71545200Y-30672915D01*
X71540725Y-30657676D01*
X71539335Y-30656471D01*
X71531652Y-30654800D01*
X70264886Y-30654800D01*
X70250663Y-30658976D01*
X70248607Y-30671707D01*
X23751075Y-30671707D01*
X23748657Y-30658219D01*
X23736223Y-30654800D01*
X22472915Y-30654800D01*
X22457676Y-30659275D01*
X22456471Y-30660665D01*
X22454800Y-30668348D01*
X22454800Y-31085884D01*
X21845200Y-31085884D01*
X21845200Y-30027085D01*
X22454800Y-30027085D01*
X22459275Y-30042324D01*
X22460665Y-30043529D01*
X22468348Y-30045200D01*
X23735114Y-30045200D01*
X23749337Y-30041024D01*
X23751393Y-30028293D01*
X23748159Y-29998518D01*
X23744530Y-29983259D01*
X23699778Y-29863882D01*
X23691246Y-29848296D01*
X23615428Y-29747133D01*
X23602867Y-29734572D01*
X23501704Y-29658754D01*
X23486118Y-29650222D01*
X23366735Y-29605467D01*
X23351490Y-29601842D01*
X23301108Y-29596369D01*
X23294294Y-29596000D01*
X22472915Y-29596000D01*
X22457676Y-29600475D01*
X22456471Y-29601865D01*
X22454800Y-29609548D01*
X22454800Y-30027085D01*
X21845200Y-30027085D01*
X21845200Y-29614116D01*
X21840725Y-29598877D01*
X21839335Y-29597672D01*
X21831652Y-29596001D01*
X21005708Y-29596001D01*
X20998890Y-29596370D01*
X20948518Y-29601841D01*
X20933259Y-29605470D01*
X20813882Y-29650222D01*
X20798296Y-29658754D01*
X20704067Y-29729375D01*
X20637560Y-29754223D01*
X20568178Y-29739170D01*
X20517948Y-29688996D01*
X20502502Y-29628459D01*
X20502513Y-29614116D01*
X20505962Y-24785000D01*
X23183073Y-24785000D01*
X23203072Y-24936908D01*
X23261706Y-25078463D01*
X23354980Y-25200020D01*
X23361530Y-25205046D01*
X23361533Y-25205049D01*
X23469983Y-25288266D01*
X23476536Y-25293294D01*
X23507738Y-25306218D01*
X23610462Y-25348768D01*
X23610465Y-25348769D01*
X23618092Y-25351928D01*
X23770000Y-25371927D01*
X23778188Y-25370849D01*
X23913720Y-25353006D01*
X23921908Y-25351928D01*
X23929535Y-25348769D01*
X23929538Y-25348768D01*
X24032262Y-25306218D01*
X24063464Y-25293294D01*
X24079304Y-25281140D01*
X24134024Y-25239151D01*
X24185020Y-25200020D01*
X24189847Y-25193729D01*
X24252027Y-25159779D01*
X24278807Y-25156900D01*
X24355261Y-25156900D01*
X24428431Y-25180322D01*
X24434393Y-25184575D01*
X24441765Y-25191934D01*
X24547555Y-25243646D01*
X24557232Y-25245058D01*
X24557233Y-25245058D01*
X24572231Y-25247246D01*
X24593409Y-25250335D01*
X24657929Y-25279960D01*
X24696190Y-25339765D01*
X24696044Y-25410761D01*
X24657538Y-25470409D01*
X24593569Y-25499672D01*
X24556643Y-25505107D01*
X24556642Y-25505107D01*
X24546955Y-25506533D01*
X24441256Y-25558429D01*
X24433899Y-25565799D01*
X24433898Y-25565800D01*
X24366886Y-25632930D01*
X24358066Y-25641765D01*
X24306354Y-25747555D01*
X24296300Y-25816473D01*
X24296301Y-26183526D01*
X24306533Y-26253045D01*
X24358429Y-26358744D01*
X24365800Y-26366102D01*
X24406670Y-26406900D01*
X24441765Y-26441934D01*
X24547555Y-26493646D01*
X24557232Y-26495058D01*
X24557233Y-26495058D01*
X24572231Y-26497246D01*
X24593409Y-26500335D01*
X24657929Y-26529960D01*
X24696190Y-26589765D01*
X24696044Y-26660761D01*
X24657538Y-26720409D01*
X24593569Y-26749672D01*
X24556643Y-26755107D01*
X24556642Y-26755107D01*
X24546955Y-26756533D01*
X24441256Y-26808429D01*
X24421334Y-26828386D01*
X24366886Y-26882930D01*
X24358066Y-26891765D01*
X24306354Y-26997555D01*
X24296300Y-27066473D01*
X24296301Y-27433526D01*
X24306533Y-27503045D01*
X24358429Y-27608744D01*
X24365800Y-27616102D01*
X24406670Y-27656900D01*
X24441765Y-27691934D01*
X24451118Y-27696506D01*
X24476019Y-27708678D01*
X24547555Y-27743646D01*
X24557232Y-27745058D01*
X24557233Y-27745058D01*
X24572231Y-27747246D01*
X24593409Y-27750335D01*
X24657929Y-27779960D01*
X24696190Y-27839765D01*
X24696044Y-27910761D01*
X24657538Y-27970409D01*
X24593569Y-27999672D01*
X24556643Y-28005107D01*
X24556642Y-28005107D01*
X24546955Y-28006533D01*
X24441256Y-28058429D01*
X24358066Y-28141765D01*
X24306354Y-28247555D01*
X24304943Y-28257230D01*
X24304942Y-28257232D01*
X24302472Y-28274167D01*
X24296300Y-28316473D01*
X24296301Y-28683526D01*
X24296972Y-28688084D01*
X24296972Y-28688086D01*
X24300205Y-28710049D01*
X24306533Y-28753045D01*
X24358429Y-28858744D01*
X24365800Y-28866102D01*
X24419793Y-28920000D01*
X24441765Y-28941934D01*
X24547555Y-28993646D01*
X24557230Y-28995057D01*
X24557232Y-28995058D01*
X24611946Y-29003040D01*
X24611952Y-29003040D01*
X24616473Y-29003700D01*
X25226067Y-29003700D01*
X25294188Y-29023702D01*
X25315162Y-29040605D01*
X26477849Y-30203292D01*
X26497904Y-30213510D01*
X26514759Y-30223840D01*
X26532968Y-30237070D01*
X26542401Y-30240135D01*
X26542403Y-30240136D01*
X26554380Y-30244028D01*
X26572641Y-30251592D01*
X26592694Y-30261809D01*
X26602487Y-30263360D01*
X26614926Y-30265330D01*
X26634152Y-30269946D01*
X26655554Y-30276900D01*
X26976627Y-30276900D01*
X27044748Y-30296902D01*
X27053331Y-30302938D01*
X27151536Y-30378294D01*
X27222314Y-30407611D01*
X27285462Y-30433768D01*
X27285465Y-30433769D01*
X27293092Y-30436928D01*
X27445000Y-30456927D01*
X27453188Y-30455849D01*
X27588720Y-30438006D01*
X27596908Y-30436928D01*
X27604535Y-30433769D01*
X27604538Y-30433768D01*
X27667686Y-30407611D01*
X27738464Y-30378294D01*
X27745017Y-30373266D01*
X27853467Y-30290049D01*
X27853470Y-30290046D01*
X27860020Y-30285020D01*
X27877831Y-30261809D01*
X27948267Y-30170014D01*
X27953294Y-30163463D01*
X28009741Y-30027189D01*
X70248727Y-30027189D01*
X70251343Y-30041781D01*
X70263777Y-30045200D01*
X71527085Y-30045200D01*
X71542324Y-30040725D01*
X71543529Y-30039335D01*
X71545200Y-30031652D01*
X71545200Y-29614116D01*
X71540725Y-29598877D01*
X71539335Y-29597672D01*
X71531652Y-29596001D01*
X70705708Y-29596001D01*
X70698890Y-29596370D01*
X70648518Y-29601841D01*
X70633259Y-29605470D01*
X70513882Y-29650222D01*
X70498296Y-29658754D01*
X70397133Y-29734572D01*
X70384572Y-29747133D01*
X70308754Y-29848296D01*
X70300222Y-29863882D01*
X70255467Y-29983265D01*
X70251842Y-29998511D01*
X70248727Y-30027189D01*
X28009741Y-30027189D01*
X28011928Y-30021908D01*
X28031927Y-29870000D01*
X28011928Y-29718092D01*
X27953294Y-29576537D01*
X27866251Y-29463100D01*
X27865047Y-29461531D01*
X27865046Y-29461530D01*
X27860020Y-29454980D01*
X27853470Y-29449954D01*
X27853467Y-29449951D01*
X27745020Y-29366736D01*
X27745017Y-29366734D01*
X27738464Y-29361706D01*
X27736755Y-29360998D01*
X27689812Y-29311766D01*
X27676375Y-29242053D01*
X27702762Y-29176142D01*
X27760594Y-29134959D01*
X27785357Y-29129107D01*
X27793720Y-29128006D01*
X27801908Y-29126928D01*
X27809535Y-29123769D01*
X27809538Y-29123768D01*
X27872686Y-29097611D01*
X27943464Y-29068294D01*
X27950017Y-29063266D01*
X28058467Y-28980049D01*
X28058470Y-28980046D01*
X28065020Y-28975020D01*
X28091877Y-28940020D01*
X28140289Y-28876927D01*
X28158294Y-28853463D01*
X28216928Y-28711908D01*
X28219061Y-28695710D01*
X28235849Y-28568188D01*
X28236927Y-28560000D01*
X28216928Y-28408092D01*
X28158294Y-28266537D01*
X28065020Y-28144980D01*
X28058470Y-28139954D01*
X28058467Y-28139951D01*
X27950017Y-28056734D01*
X27950015Y-28056733D01*
X27943464Y-28051706D01*
X27844312Y-28010636D01*
X27809538Y-27996232D01*
X27809535Y-27996231D01*
X27801908Y-27993072D01*
X27778468Y-27989986D01*
X27658188Y-27974151D01*
X27650000Y-27973073D01*
X27564487Y-27984331D01*
X27494340Y-27973392D01*
X27458947Y-27948504D01*
X26427151Y-26916708D01*
X26407096Y-26906490D01*
X26390241Y-26896160D01*
X26380057Y-26888761D01*
X26372032Y-26882930D01*
X26362599Y-26879865D01*
X26362597Y-26879864D01*
X26350620Y-26875972D01*
X26332358Y-26868408D01*
X26322158Y-26863211D01*
X26290341Y-26840116D01*
X26265604Y-26815422D01*
X26265603Y-26815422D01*
X26258235Y-26808066D01*
X26152445Y-26756354D01*
X26142768Y-26754942D01*
X26142767Y-26754942D01*
X26127769Y-26752754D01*
X26106591Y-26749665D01*
X26042071Y-26720040D01*
X26003810Y-26660235D01*
X26003956Y-26589239D01*
X26042462Y-26529591D01*
X26106431Y-26500328D01*
X26143357Y-26494893D01*
X26143358Y-26494893D01*
X26153045Y-26493467D01*
X26258744Y-26441571D01*
X26266102Y-26434200D01*
X26274571Y-26428137D01*
X26276416Y-26430715D01*
X26319522Y-26407134D01*
X26319446Y-26406900D01*
X26320687Y-26406497D01*
X26320688Y-26406496D01*
X26328453Y-26403973D01*
X26328455Y-26403973D01*
X26340848Y-26399946D01*
X26360074Y-26395330D01*
X26372513Y-26393360D01*
X26382306Y-26391809D01*
X26402359Y-26381592D01*
X26420620Y-26374028D01*
X26432597Y-26370136D01*
X26432599Y-26370135D01*
X26442032Y-26367070D01*
X26460241Y-26353840D01*
X26477096Y-26343510D01*
X26497151Y-26333292D01*
X26685443Y-26145000D01*
X27725000Y-26145000D01*
X27725300Y-26148248D01*
X27725300Y-26148253D01*
X27754618Y-26465859D01*
X27755000Y-26470000D01*
X27755538Y-26472868D01*
X27755539Y-26472877D01*
X27780779Y-26607487D01*
X27815000Y-26790000D01*
X27815799Y-26792798D01*
X27815802Y-26792809D01*
X27871792Y-26988771D01*
X27875000Y-27000000D01*
X27876037Y-27002678D01*
X27876038Y-27002682D01*
X27993742Y-27306749D01*
X27995000Y-27310000D01*
X28049702Y-27428917D01*
X28104313Y-27547636D01*
X28110000Y-27560000D01*
X28112549Y-27563898D01*
X28112552Y-27563904D01*
X28215919Y-27721994D01*
X28280000Y-27820000D01*
X28281041Y-27821413D01*
X28281046Y-27821420D01*
X28369054Y-27940859D01*
X28420000Y-28010000D01*
X28575000Y-28210000D01*
X28577145Y-28212264D01*
X28577150Y-28212270D01*
X28738007Y-28382063D01*
X28755000Y-28400000D01*
X28773824Y-28416280D01*
X28937393Y-28557746D01*
X28937401Y-28557752D01*
X28940000Y-28560000D01*
X29230000Y-28760000D01*
X29316168Y-28809239D01*
X29507677Y-28918673D01*
X29507685Y-28918677D01*
X29510000Y-28920000D01*
X29512430Y-28921125D01*
X29768006Y-29039447D01*
X29780000Y-29045000D01*
X29783178Y-29046077D01*
X29783187Y-29046080D01*
X30087864Y-29149277D01*
X30087876Y-29149281D01*
X30090000Y-29150000D01*
X30320000Y-29210000D01*
X30322781Y-29210463D01*
X30322788Y-29210465D01*
X30459846Y-29233308D01*
X30530000Y-29245000D01*
X30750000Y-29270000D01*
X30995000Y-29280000D01*
X30998289Y-29279790D01*
X30998295Y-29279790D01*
X31228968Y-29265066D01*
X31228976Y-29265065D01*
X31230000Y-29265000D01*
X31273460Y-29260760D01*
X31432974Y-29245198D01*
X31432984Y-29245197D01*
X31435000Y-29245000D01*
X31437017Y-29244670D01*
X31706665Y-29200546D01*
X31706670Y-29200545D01*
X31710000Y-29200000D01*
X31902390Y-29146927D01*
X31997475Y-29120697D01*
X31997485Y-29120694D01*
X32000000Y-29120000D01*
X32140755Y-29068294D01*
X32242949Y-29030754D01*
X32242963Y-29030748D01*
X32245000Y-29030000D01*
X32254257Y-29025859D01*
X32433328Y-28945748D01*
X32435000Y-28945000D01*
X32695000Y-28810000D01*
X32698646Y-28807534D01*
X32773092Y-28757173D01*
X32865000Y-28695000D01*
X32866003Y-28694261D01*
X32866027Y-28694244D01*
X33052869Y-28556570D01*
X33055000Y-28555000D01*
X33255000Y-28380000D01*
X33400000Y-28225000D01*
X33453404Y-28165188D01*
X33523205Y-28087011D01*
X33523211Y-28087004D01*
X33525000Y-28085000D01*
X33629511Y-27945652D01*
X33630440Y-27944428D01*
X33777064Y-27753817D01*
X33777065Y-27753816D01*
X33780000Y-27750000D01*
X33783495Y-27743646D01*
X33889023Y-27551777D01*
X33889027Y-27551768D01*
X33890000Y-27550000D01*
X34005000Y-27305000D01*
X34100000Y-27065000D01*
X34170000Y-26835000D01*
X34210119Y-26651121D01*
X34229434Y-26562596D01*
X34229436Y-26562587D01*
X34230000Y-26560000D01*
X34242728Y-26462949D01*
X34269594Y-26258097D01*
X34269594Y-26258094D01*
X34270000Y-26255000D01*
X34273567Y-26140859D01*
X59720109Y-26140859D01*
X59720409Y-26144107D01*
X59720409Y-26144112D01*
X59748323Y-26446506D01*
X59750109Y-26465859D01*
X59750647Y-26468727D01*
X59750648Y-26468736D01*
X59780833Y-26629719D01*
X59810109Y-26785859D01*
X59810908Y-26788657D01*
X59810911Y-26788668D01*
X59846208Y-26912205D01*
X59870109Y-26995859D01*
X59871146Y-26998537D01*
X59871147Y-26998541D01*
X59988851Y-27302608D01*
X59990109Y-27305859D01*
X60065040Y-27468753D01*
X60101570Y-27548165D01*
X60105109Y-27555859D01*
X60107658Y-27559757D01*
X60107661Y-27559763D01*
X60147799Y-27621150D01*
X60275109Y-27815859D01*
X60276150Y-27817272D01*
X60276155Y-27817279D01*
X60370473Y-27945281D01*
X60415109Y-28005859D01*
X60570109Y-28205859D01*
X60572254Y-28208123D01*
X60572259Y-28208129D01*
X60737039Y-28382063D01*
X60750109Y-28395859D01*
X60773721Y-28416280D01*
X60932502Y-28553605D01*
X60932510Y-28553611D01*
X60935109Y-28555859D01*
X61225109Y-28755859D01*
X61315540Y-28807534D01*
X61502786Y-28914532D01*
X61502794Y-28914536D01*
X61505109Y-28915859D01*
X61507539Y-28916984D01*
X61751654Y-29030000D01*
X61775109Y-29040859D01*
X61778287Y-29041936D01*
X61778296Y-29041939D01*
X62082973Y-29145136D01*
X62082985Y-29145140D01*
X62085109Y-29145859D01*
X62315109Y-29205859D01*
X62317890Y-29206322D01*
X62317897Y-29206324D01*
X62454955Y-29229167D01*
X62525109Y-29240859D01*
X62745109Y-29265859D01*
X62990109Y-29275859D01*
X62993398Y-29275649D01*
X62993404Y-29275649D01*
X63224077Y-29260925D01*
X63224085Y-29260924D01*
X63225109Y-29260859D01*
X63261763Y-29257283D01*
X63428083Y-29241057D01*
X63428093Y-29241056D01*
X63430109Y-29240859D01*
X63432126Y-29240529D01*
X63701774Y-29196405D01*
X63701779Y-29196404D01*
X63705109Y-29195859D01*
X63925872Y-29134959D01*
X63992584Y-29116556D01*
X63992594Y-29116553D01*
X63995109Y-29115859D01*
X64138279Y-29063266D01*
X64238058Y-29026613D01*
X64238072Y-29026607D01*
X64240109Y-29025859D01*
X64308959Y-28995058D01*
X64428437Y-28941607D01*
X64430109Y-28940859D01*
X64690109Y-28805859D01*
X64698286Y-28800328D01*
X64852938Y-28695710D01*
X64860109Y-28690859D01*
X64861112Y-28690120D01*
X64861136Y-28690103D01*
X65047978Y-28552429D01*
X65050109Y-28550859D01*
X65250109Y-28375859D01*
X65330429Y-28290000D01*
X66028073Y-28290000D01*
X66048072Y-28441908D01*
X66106706Y-28583463D01*
X66111733Y-28590014D01*
X66189659Y-28691569D01*
X66199980Y-28705020D01*
X66206530Y-28710046D01*
X66206533Y-28710049D01*
X66273343Y-28761314D01*
X66321536Y-28798294D01*
X66392314Y-28827611D01*
X66455462Y-28853768D01*
X66455465Y-28853769D01*
X66463092Y-28856928D01*
X66471280Y-28858006D01*
X66532776Y-28866102D01*
X66615000Y-28876927D01*
X66623188Y-28875849D01*
X66758720Y-28858006D01*
X66766908Y-28856928D01*
X66774535Y-28853769D01*
X66774538Y-28853768D01*
X66837686Y-28827611D01*
X66886651Y-28807329D01*
X67577111Y-28807329D01*
X67577717Y-28809239D01*
X67614583Y-28881593D01*
X67626094Y-28897436D01*
X67702564Y-28973906D01*
X67718407Y-28985417D01*
X67814768Y-29034515D01*
X67833392Y-29040567D01*
X67913315Y-29053225D01*
X67923158Y-29054000D01*
X68331885Y-29054000D01*
X68347124Y-29049525D01*
X68348329Y-29048135D01*
X68350000Y-29040452D01*
X68350000Y-29035884D01*
X68950000Y-29035884D01*
X68954475Y-29051123D01*
X68955865Y-29052328D01*
X68963548Y-29053999D01*
X69376840Y-29053999D01*
X69386687Y-29053224D01*
X69466607Y-29040567D01*
X69485233Y-29034515D01*
X69581593Y-28985417D01*
X69597436Y-28973906D01*
X69673906Y-28897436D01*
X69685417Y-28881593D01*
X69718767Y-28816140D01*
X69721370Y-28802282D01*
X69718597Y-28800328D01*
X69716621Y-28800000D01*
X68968115Y-28800000D01*
X68952876Y-28804475D01*
X68951671Y-28805865D01*
X68950000Y-28813548D01*
X68950000Y-29035884D01*
X68350000Y-29035884D01*
X68350000Y-28818115D01*
X68345525Y-28802876D01*
X68344135Y-28801671D01*
X68336452Y-28800000D01*
X67591124Y-28800000D01*
X67577593Y-28803973D01*
X67577111Y-28807329D01*
X66886651Y-28807329D01*
X66908464Y-28798294D01*
X66956657Y-28761314D01*
X67023467Y-28710049D01*
X67023470Y-28710046D01*
X67030020Y-28705020D01*
X67040342Y-28691569D01*
X67118267Y-28590014D01*
X67123294Y-28583463D01*
X67181928Y-28441908D01*
X67198086Y-28319179D01*
X67226807Y-28254253D01*
X67233912Y-28246531D01*
X67358908Y-28121535D01*
X67421220Y-28087509D01*
X67492035Y-28092574D01*
X67548871Y-28135121D01*
X67560651Y-28166705D01*
X67564388Y-28165188D01*
X67577175Y-28196692D01*
X67581403Y-28199672D01*
X67583379Y-28200000D01*
X69708876Y-28200000D01*
X69722407Y-28196027D01*
X69722889Y-28192671D01*
X69722283Y-28190761D01*
X69685417Y-28118407D01*
X69673906Y-28102564D01*
X69597436Y-28026094D01*
X69581593Y-28014583D01*
X69476399Y-27960984D01*
X69477523Y-27958779D01*
X69430624Y-27926710D01*
X69402988Y-27861313D01*
X69415095Y-27791356D01*
X69463102Y-27739050D01*
X69472636Y-27733848D01*
X69549396Y-27696161D01*
X69549397Y-27696160D01*
X69558744Y-27691571D01*
X69566100Y-27684202D01*
X69571342Y-27680449D01*
X69644689Y-27656900D01*
X69758023Y-27656900D01*
X69826144Y-27676902D01*
X69857985Y-27706196D01*
X69924949Y-27793465D01*
X69924953Y-27793469D01*
X69929980Y-27800020D01*
X69936530Y-27805046D01*
X69936533Y-27805049D01*
X70044983Y-27888266D01*
X70051536Y-27893294D01*
X70102602Y-27914446D01*
X70185462Y-27948768D01*
X70185465Y-27948769D01*
X70193092Y-27951928D01*
X70201280Y-27953006D01*
X70225374Y-27956178D01*
X70345000Y-27971927D01*
X70353188Y-27970849D01*
X70488720Y-27953006D01*
X70496908Y-27951928D01*
X70504535Y-27948769D01*
X70504538Y-27948768D01*
X70587398Y-27914446D01*
X70638464Y-27893294D01*
X70645017Y-27888266D01*
X70753467Y-27805049D01*
X70753470Y-27805046D01*
X70760020Y-27800020D01*
X70770216Y-27786733D01*
X70810891Y-27733724D01*
X70853294Y-27678463D01*
X70911928Y-27536908D01*
X70931927Y-27385000D01*
X70911928Y-27233092D01*
X70853294Y-27091537D01*
X70806657Y-27030758D01*
X70765047Y-26976531D01*
X70765046Y-26976530D01*
X70760020Y-26969980D01*
X70753470Y-26964954D01*
X70753467Y-26964951D01*
X70645017Y-26881734D01*
X70645015Y-26881733D01*
X70638464Y-26876706D01*
X70567686Y-26847389D01*
X70504538Y-26821232D01*
X70504535Y-26821231D01*
X70496908Y-26818072D01*
X70479651Y-26815800D01*
X70386177Y-26803494D01*
X70345000Y-26798073D01*
X70303823Y-26803494D01*
X70210350Y-26815800D01*
X70193092Y-26818072D01*
X70162222Y-26830859D01*
X70155824Y-26833509D01*
X70107606Y-26843100D01*
X69644739Y-26843100D01*
X69571569Y-26819678D01*
X69565607Y-26815425D01*
X69558235Y-26808066D01*
X69452445Y-26756354D01*
X69442768Y-26754942D01*
X69442767Y-26754942D01*
X69427769Y-26752754D01*
X69406591Y-26749665D01*
X69342071Y-26720040D01*
X69303810Y-26660235D01*
X69303956Y-26589239D01*
X69342462Y-26529591D01*
X69406431Y-26500328D01*
X69443357Y-26494893D01*
X69443358Y-26494893D01*
X69453045Y-26493467D01*
X69558744Y-26441571D01*
X69630054Y-26370136D01*
X69634578Y-26365604D01*
X69641934Y-26358235D01*
X69693646Y-26252445D01*
X69703700Y-26183527D01*
X69703699Y-25816474D01*
X69693467Y-25746955D01*
X69641571Y-25641256D01*
X69558235Y-25558066D01*
X69452445Y-25506354D01*
X69442768Y-25504942D01*
X69442767Y-25504942D01*
X69427769Y-25502754D01*
X69406591Y-25499665D01*
X69342071Y-25470040D01*
X69303810Y-25410235D01*
X69303956Y-25339239D01*
X69342462Y-25279591D01*
X69406431Y-25250328D01*
X69443357Y-25244893D01*
X69443358Y-25244893D01*
X69453045Y-25243467D01*
X69558744Y-25191571D01*
X69623112Y-25127090D01*
X69634578Y-25115604D01*
X69641934Y-25108235D01*
X69693646Y-25002445D01*
X69695488Y-24989819D01*
X69703040Y-24938054D01*
X69703040Y-24938048D01*
X69703700Y-24933527D01*
X69703699Y-24566474D01*
X69693467Y-24496955D01*
X69641571Y-24391256D01*
X69600583Y-24350340D01*
X69565604Y-24315422D01*
X69558235Y-24308066D01*
X69452445Y-24256354D01*
X69442768Y-24254942D01*
X69442767Y-24254942D01*
X69427769Y-24252754D01*
X69406591Y-24249665D01*
X69342071Y-24220040D01*
X69303810Y-24160235D01*
X69303956Y-24089239D01*
X69342462Y-24029591D01*
X69406431Y-24000328D01*
X69443357Y-23994893D01*
X69443358Y-23994893D01*
X69453045Y-23993467D01*
X69558744Y-23941571D01*
X69641934Y-23858235D01*
X69693646Y-23752445D01*
X69695058Y-23742768D01*
X69703040Y-23688054D01*
X69703040Y-23688048D01*
X69703700Y-23683527D01*
X69703699Y-23316474D01*
X69693467Y-23246955D01*
X69641571Y-23141256D01*
X69558235Y-23058066D01*
X69548819Y-23053463D01*
X69492828Y-23026094D01*
X69452445Y-23006354D01*
X69442770Y-23004943D01*
X69442768Y-23004942D01*
X69388054Y-22996960D01*
X69388048Y-22996960D01*
X69383527Y-22996300D01*
X69182900Y-22996300D01*
X69114779Y-22976298D01*
X69068286Y-22922642D01*
X69056900Y-22870300D01*
X69056900Y-22455554D01*
X69049946Y-22434152D01*
X69045330Y-22414926D01*
X69043360Y-22402487D01*
X69041809Y-22392694D01*
X69031592Y-22372641D01*
X69024028Y-22354380D01*
X69020136Y-22342403D01*
X69020135Y-22342401D01*
X69017070Y-22332968D01*
X69003840Y-22314759D01*
X68993508Y-22297900D01*
X68987795Y-22286687D01*
X68983292Y-22277849D01*
X68763912Y-22058469D01*
X68729886Y-21996157D01*
X68728085Y-21985820D01*
X68726373Y-21972811D01*
X68726228Y-21971707D01*
X70248607Y-21971707D01*
X70251841Y-22001482D01*
X70255470Y-22016741D01*
X70300222Y-22136118D01*
X70308754Y-22151704D01*
X70384572Y-22252867D01*
X70397133Y-22265428D01*
X70498296Y-22341246D01*
X70513882Y-22349778D01*
X70633265Y-22394533D01*
X70648510Y-22398158D01*
X70698892Y-22403631D01*
X70705706Y-22404000D01*
X71527085Y-22404000D01*
X71542324Y-22399525D01*
X71543529Y-22398135D01*
X71545200Y-22390452D01*
X71545200Y-21972915D01*
X71540725Y-21957676D01*
X71539335Y-21956471D01*
X71531652Y-21954800D01*
X70264886Y-21954800D01*
X70250663Y-21958976D01*
X70248607Y-21971707D01*
X68726228Y-21971707D01*
X68711928Y-21863092D01*
X68653294Y-21721537D01*
X68560020Y-21599980D01*
X68553470Y-21594954D01*
X68553467Y-21594951D01*
X68445017Y-21511734D01*
X68445015Y-21511733D01*
X68438464Y-21506706D01*
X68367686Y-21477389D01*
X68304538Y-21451232D01*
X68304535Y-21451231D01*
X68296908Y-21448072D01*
X68145000Y-21428073D01*
X67993092Y-21448072D01*
X67851537Y-21506706D01*
X67729980Y-21599980D01*
X67636706Y-21721537D01*
X67578072Y-21863092D01*
X67577950Y-21863041D01*
X67543233Y-21920001D01*
X67479373Y-21951024D01*
X67408878Y-21942597D01*
X67369704Y-21916084D01*
X67365020Y-21909980D01*
X67243464Y-21816706D01*
X67172686Y-21787389D01*
X67109538Y-21761232D01*
X67109535Y-21761231D01*
X67101908Y-21758072D01*
X66950000Y-21738073D01*
X66798092Y-21758072D01*
X66656537Y-21816706D01*
X66534980Y-21909980D01*
X66441706Y-22031537D01*
X66383072Y-22173092D01*
X66381994Y-22181280D01*
X66380442Y-22193072D01*
X66363073Y-22325000D01*
X66383072Y-22476908D01*
X66441706Y-22618463D01*
X66446734Y-22625016D01*
X66446736Y-22625019D01*
X66517062Y-22716670D01*
X66542663Y-22782890D01*
X66543100Y-22793374D01*
X66543100Y-23939446D01*
X66546165Y-23948879D01*
X66550054Y-23960848D01*
X66554670Y-23980074D01*
X66558191Y-24002306D01*
X66562692Y-24011139D01*
X66562692Y-24011140D01*
X66568408Y-24022358D01*
X66575972Y-24040620D01*
X66579864Y-24052597D01*
X66582930Y-24062032D01*
X66588761Y-24070057D01*
X66596160Y-24080241D01*
X66606490Y-24097096D01*
X66616708Y-24117151D01*
X67582849Y-25083292D01*
X67602904Y-25093510D01*
X67619759Y-25103840D01*
X67629942Y-25111239D01*
X67629944Y-25111240D01*
X67637968Y-25117070D01*
X67651951Y-25121613D01*
X67702033Y-25152272D01*
X67741765Y-25191934D01*
X67847555Y-25243646D01*
X67857232Y-25245058D01*
X67857233Y-25245058D01*
X67872231Y-25247246D01*
X67893409Y-25250335D01*
X67957929Y-25279960D01*
X67996190Y-25339765D01*
X67996044Y-25410761D01*
X67957538Y-25470409D01*
X67893569Y-25499672D01*
X67856643Y-25505107D01*
X67856642Y-25505107D01*
X67846955Y-25506533D01*
X67831354Y-25514193D01*
X67750604Y-25553839D01*
X67750603Y-25553840D01*
X67741256Y-25558429D01*
X67733901Y-25565797D01*
X67733898Y-25565799D01*
X67727849Y-25571859D01*
X67671613Y-25602629D01*
X67671920Y-25603575D01*
X67666909Y-25605203D01*
X67665566Y-25605938D01*
X67663382Y-25606349D01*
X67662486Y-25606640D01*
X67652694Y-25608191D01*
X67643861Y-25612692D01*
X67643860Y-25612692D01*
X67632642Y-25618408D01*
X67614380Y-25625972D01*
X67602403Y-25629864D01*
X67602401Y-25629865D01*
X67592968Y-25632930D01*
X67584943Y-25638761D01*
X67574759Y-25646160D01*
X67557904Y-25656490D01*
X67537849Y-25666708D01*
X66721708Y-26482849D01*
X66715572Y-26494893D01*
X66711492Y-26502900D01*
X66701160Y-26519759D01*
X66687930Y-26537968D01*
X66684865Y-26547401D01*
X66684864Y-26547403D01*
X66680972Y-26559380D01*
X66673408Y-26577641D01*
X66663191Y-26597694D01*
X66661640Y-26607487D01*
X66659670Y-26619926D01*
X66655054Y-26639152D01*
X66648100Y-26660554D01*
X66648100Y-27588216D01*
X66628098Y-27656337D01*
X66574442Y-27702830D01*
X66538547Y-27713138D01*
X66471280Y-27721994D01*
X66463092Y-27723072D01*
X66321537Y-27781706D01*
X66199980Y-27874980D01*
X66106706Y-27996537D01*
X66048072Y-28138092D01*
X66028073Y-28290000D01*
X65330429Y-28290000D01*
X65395109Y-28220859D01*
X65457378Y-28151118D01*
X65518314Y-28082870D01*
X65518320Y-28082863D01*
X65520109Y-28080859D01*
X65624620Y-27941511D01*
X65625549Y-27940287D01*
X65772173Y-27749676D01*
X65772174Y-27749675D01*
X65775109Y-27745859D01*
X65781715Y-27733848D01*
X65884132Y-27547636D01*
X65884136Y-27547627D01*
X65885109Y-27545859D01*
X66000109Y-27300859D01*
X66095109Y-27060859D01*
X66165109Y-26830859D01*
X66213845Y-26607487D01*
X66224543Y-26558455D01*
X66224545Y-26558446D01*
X66225109Y-26555859D01*
X66241521Y-26430715D01*
X66264703Y-26253956D01*
X66264703Y-26253953D01*
X66265109Y-26250859D01*
X66269295Y-26116902D01*
X66275020Y-25933721D01*
X66275020Y-25933711D01*
X66275109Y-25930859D01*
X66262809Y-25725859D01*
X66260230Y-25682874D01*
X66260230Y-25682871D01*
X66260109Y-25680859D01*
X66225109Y-25400859D01*
X66189391Y-25250335D01*
X66156013Y-25109667D01*
X66156011Y-25109661D01*
X66155109Y-25105859D01*
X66015109Y-24730859D01*
X65968931Y-24628007D01*
X65906090Y-24488043D01*
X65906085Y-24488034D01*
X65905109Y-24485859D01*
X65794171Y-24281733D01*
X65781713Y-24258810D01*
X65781711Y-24258807D01*
X65780109Y-24255859D01*
X65635109Y-24045859D01*
X65550375Y-23941571D01*
X65506398Y-23887445D01*
X65506392Y-23887438D01*
X65505109Y-23885859D01*
X65315109Y-23680859D01*
X65260072Y-23628879D01*
X65225091Y-23595842D01*
X65135109Y-23510859D01*
X65073728Y-23460000D01*
X64962751Y-23368048D01*
X64962750Y-23368047D01*
X64960109Y-23365859D01*
X64948354Y-23358106D01*
X64726536Y-23211800D01*
X64726530Y-23211796D01*
X64725109Y-23210859D01*
X64723656Y-23210008D01*
X64723644Y-23210001D01*
X64606204Y-23141256D01*
X64520109Y-23090859D01*
X64255109Y-22965859D01*
X64252132Y-22964805D01*
X64252128Y-22964803D01*
X64016618Y-22881393D01*
X64016603Y-22881388D01*
X64015109Y-22880859D01*
X64013595Y-22880409D01*
X64013580Y-22880404D01*
X63897661Y-22845942D01*
X63830109Y-22825859D01*
X63620109Y-22780859D01*
X63465109Y-22750859D01*
X63436591Y-22747759D01*
X63237846Y-22726156D01*
X63237835Y-22726155D01*
X63235109Y-22725859D01*
X62995109Y-22720859D01*
X62990109Y-22720859D01*
X62954175Y-22721695D01*
X62778362Y-22725783D01*
X62778355Y-22725784D01*
X62775109Y-22725859D01*
X62771882Y-22726269D01*
X62771879Y-22726269D01*
X62462155Y-22765599D01*
X62462149Y-22765600D01*
X62460109Y-22765859D01*
X62458087Y-22766250D01*
X62458083Y-22766251D01*
X62153533Y-22825196D01*
X62153528Y-22825197D01*
X62150109Y-22825859D01*
X61925109Y-22895859D01*
X61570109Y-23040859D01*
X61150109Y-23275859D01*
X60920109Y-23455859D01*
X60620109Y-23735859D01*
X60618063Y-23738184D01*
X60410628Y-23973906D01*
X60400109Y-23985859D01*
X60135109Y-24390859D01*
X60015109Y-24620859D01*
X60013917Y-24623859D01*
X60013914Y-24623866D01*
X59873844Y-24976457D01*
X59870109Y-24985859D01*
X59869104Y-24989815D01*
X59869103Y-24989819D01*
X59791228Y-25296454D01*
X59790109Y-25300859D01*
X59789677Y-25303452D01*
X59789676Y-25303456D01*
X59781418Y-25353006D01*
X59755109Y-25510859D01*
X59754999Y-25511649D01*
X59754994Y-25511680D01*
X59731668Y-25678853D01*
X59725109Y-25725859D01*
X59725061Y-25729837D01*
X59725061Y-25729838D01*
X59722605Y-25933721D01*
X59720109Y-26140859D01*
X34273567Y-26140859D01*
X34280000Y-25935000D01*
X34267690Y-25729838D01*
X34265121Y-25687015D01*
X34265121Y-25687012D01*
X34265000Y-25685000D01*
X34230000Y-25405000D01*
X34185836Y-25218879D01*
X34160904Y-25113808D01*
X34160902Y-25113802D01*
X34160000Y-25110000D01*
X34020000Y-24735000D01*
X34018141Y-24730859D01*
X33910981Y-24492184D01*
X33910976Y-24492175D01*
X33910000Y-24490000D01*
X33817365Y-24319551D01*
X33786604Y-24262951D01*
X33786602Y-24262948D01*
X33785000Y-24260000D01*
X33640000Y-24050000D01*
X33552196Y-23941934D01*
X33511289Y-23891586D01*
X33511283Y-23891579D01*
X33510000Y-23890000D01*
X33320000Y-23685000D01*
X33318441Y-23683527D01*
X33141483Y-23516401D01*
X33140000Y-23515000D01*
X33136694Y-23512260D01*
X32967642Y-23372189D01*
X32967641Y-23372188D01*
X32965000Y-23370000D01*
X32918396Y-23339261D01*
X32731427Y-23215941D01*
X32731421Y-23215937D01*
X32730000Y-23215000D01*
X32728547Y-23214149D01*
X32728535Y-23214142D01*
X32604890Y-23141765D01*
X32525000Y-23095000D01*
X32260000Y-22970000D01*
X32257023Y-22968946D01*
X32257019Y-22968944D01*
X32021509Y-22885534D01*
X32021494Y-22885529D01*
X32020000Y-22885000D01*
X32018486Y-22884550D01*
X32018471Y-22884545D01*
X31902552Y-22850083D01*
X31835000Y-22830000D01*
X31625000Y-22785000D01*
X31470000Y-22755000D01*
X31431903Y-22750859D01*
X31242737Y-22730297D01*
X31242726Y-22730296D01*
X31240000Y-22730000D01*
X31000000Y-22725000D01*
X30995000Y-22725000D01*
X30961331Y-22725783D01*
X30783253Y-22729924D01*
X30783246Y-22729925D01*
X30780000Y-22730000D01*
X30776773Y-22730410D01*
X30776770Y-22730410D01*
X30467046Y-22769740D01*
X30467040Y-22769741D01*
X30465000Y-22770000D01*
X30462978Y-22770391D01*
X30462974Y-22770392D01*
X30158424Y-22829337D01*
X30158419Y-22829338D01*
X30155000Y-22830000D01*
X29930000Y-22900000D01*
X29575000Y-23045000D01*
X29155000Y-23280000D01*
X28925000Y-23460000D01*
X28625000Y-23740000D01*
X28622954Y-23742325D01*
X28447618Y-23941571D01*
X28405000Y-23990000D01*
X28140000Y-24395000D01*
X28020000Y-24625000D01*
X28018808Y-24628000D01*
X28018805Y-24628007D01*
X27880380Y-24976457D01*
X27875000Y-24990000D01*
X27873995Y-24993956D01*
X27873994Y-24993960D01*
X27795967Y-25301194D01*
X27795000Y-25305000D01*
X27794568Y-25307593D01*
X27794567Y-25307597D01*
X27785959Y-25359246D01*
X27760000Y-25515000D01*
X27759890Y-25515790D01*
X27759885Y-25515821D01*
X27741078Y-25650605D01*
X27730000Y-25730000D01*
X27729952Y-25733978D01*
X27729952Y-25733979D01*
X27727496Y-25937862D01*
X27725000Y-26145000D01*
X26685443Y-26145000D01*
X27443292Y-25387151D01*
X27453510Y-25367096D01*
X27463840Y-25350241D01*
X27471239Y-25340057D01*
X27477070Y-25332032D01*
X27480136Y-25322597D01*
X27484028Y-25310620D01*
X27491592Y-25292358D01*
X27497308Y-25281140D01*
X27497308Y-25281139D01*
X27501809Y-25272306D01*
X27505330Y-25250074D01*
X27509946Y-25230848D01*
X27513835Y-25218879D01*
X27516900Y-25209446D01*
X27516900Y-23339303D01*
X27536902Y-23271182D01*
X27566196Y-23239341D01*
X27643467Y-23180049D01*
X27643470Y-23180046D01*
X27650020Y-23175020D01*
X27675538Y-23141765D01*
X27710333Y-23096419D01*
X27743294Y-23053463D01*
X27801928Y-22911908D01*
X27805471Y-22885000D01*
X27820849Y-22768188D01*
X27821927Y-22760000D01*
X27804392Y-22626807D01*
X27803006Y-22616280D01*
X27801928Y-22608092D01*
X27743294Y-22466537D01*
X27679854Y-22383860D01*
X27655047Y-22351531D01*
X27655046Y-22351530D01*
X27650020Y-22344980D01*
X27643470Y-22339954D01*
X27643467Y-22339951D01*
X27535017Y-22256734D01*
X27535015Y-22256733D01*
X27528464Y-22251706D01*
X27457686Y-22222389D01*
X27394538Y-22196232D01*
X27394535Y-22196231D01*
X27386908Y-22193072D01*
X27235000Y-22173073D01*
X27083092Y-22193072D01*
X26941537Y-22251706D01*
X26819980Y-22344980D01*
X26726706Y-22466537D01*
X26668072Y-22608092D01*
X26666994Y-22616280D01*
X26665608Y-22626807D01*
X26648073Y-22760000D01*
X26649151Y-22768188D01*
X26664530Y-22885000D01*
X26668072Y-22911908D01*
X26671232Y-22919537D01*
X26693509Y-22973318D01*
X26703100Y-23021536D01*
X26703100Y-23289985D01*
X26683098Y-23358106D01*
X26629442Y-23404599D01*
X26559168Y-23414703D01*
X26494588Y-23385209D01*
X26456204Y-23325483D01*
X26452651Y-23309694D01*
X26440567Y-23233394D01*
X26434515Y-23214767D01*
X26385417Y-23118407D01*
X26373906Y-23102564D01*
X26297436Y-23026094D01*
X26281593Y-23014583D01*
X26185232Y-22965485D01*
X26166608Y-22959433D01*
X26086685Y-22946775D01*
X26076842Y-22946000D01*
X25668115Y-22946000D01*
X25652876Y-22950475D01*
X25651671Y-22951865D01*
X25650000Y-22959548D01*
X25650000Y-23674000D01*
X25629998Y-23742121D01*
X25576342Y-23788614D01*
X25524000Y-23800000D01*
X24291124Y-23800000D01*
X24277593Y-23803973D01*
X24277111Y-23807329D01*
X24277717Y-23809239D01*
X24314583Y-23881593D01*
X24326094Y-23897436D01*
X24402564Y-23973906D01*
X24418407Y-23985417D01*
X24523601Y-24039016D01*
X24522477Y-24041221D01*
X24569376Y-24073290D01*
X24597012Y-24138687D01*
X24584905Y-24208644D01*
X24536898Y-24260950D01*
X24527364Y-24266152D01*
X24450604Y-24303839D01*
X24450603Y-24303840D01*
X24441256Y-24308429D01*
X24433900Y-24315798D01*
X24428658Y-24319551D01*
X24355311Y-24343100D01*
X24192761Y-24343100D01*
X24124640Y-24323098D01*
X24116070Y-24317072D01*
X24063464Y-24276706D01*
X23990057Y-24246300D01*
X23929538Y-24221232D01*
X23929535Y-24221231D01*
X23921908Y-24218072D01*
X23770000Y-24198073D01*
X23618092Y-24218072D01*
X23476537Y-24276706D01*
X23354980Y-24369980D01*
X23261706Y-24491537D01*
X23203072Y-24633092D01*
X23183073Y-24785000D01*
X20505962Y-24785000D01*
X20507095Y-23197718D01*
X24278630Y-23197718D01*
X24281403Y-23199672D01*
X24283379Y-23200000D01*
X25031885Y-23200000D01*
X25047124Y-23195525D01*
X25048329Y-23194135D01*
X25050000Y-23186452D01*
X25050000Y-22964116D01*
X25045525Y-22948877D01*
X25044135Y-22947672D01*
X25036452Y-22946001D01*
X24623160Y-22946001D01*
X24613313Y-22946776D01*
X24533393Y-22959433D01*
X24514767Y-22965485D01*
X24418407Y-23014583D01*
X24402564Y-23026094D01*
X24326094Y-23102564D01*
X24314583Y-23118407D01*
X24281233Y-23183860D01*
X24278630Y-23197718D01*
X20507095Y-23197718D01*
X20507239Y-22996300D01*
X20507683Y-22375244D01*
X20527734Y-22307138D01*
X20581423Y-22260683D01*
X20651704Y-22250629D01*
X20709248Y-22274508D01*
X20798296Y-22341246D01*
X20813882Y-22349778D01*
X20933265Y-22394533D01*
X20948510Y-22398158D01*
X20998892Y-22403631D01*
X21005706Y-22404000D01*
X21827085Y-22404000D01*
X21842324Y-22399525D01*
X21843529Y-22398135D01*
X21845200Y-22390452D01*
X21845200Y-22385884D01*
X22454800Y-22385884D01*
X22459275Y-22401123D01*
X22460665Y-22402328D01*
X22468348Y-22403999D01*
X23294292Y-22403999D01*
X23301110Y-22403630D01*
X23351482Y-22398159D01*
X23366741Y-22394530D01*
X23486118Y-22349778D01*
X23501704Y-22341246D01*
X23602867Y-22265428D01*
X23615428Y-22252867D01*
X23691246Y-22151704D01*
X23699778Y-22136118D01*
X23744533Y-22016735D01*
X23748158Y-22001489D01*
X23751273Y-21972811D01*
X23748657Y-21958219D01*
X23736223Y-21954800D01*
X22472915Y-21954800D01*
X22457676Y-21959275D01*
X22456471Y-21960665D01*
X22454800Y-21968348D01*
X22454800Y-22385884D01*
X21845200Y-22385884D01*
X21845200Y-21327085D01*
X22454800Y-21327085D01*
X22459275Y-21342324D01*
X22460665Y-21343529D01*
X22468348Y-21345200D01*
X23735114Y-21345200D01*
X23749337Y-21341024D01*
X23751393Y-21328293D01*
X23751273Y-21327189D01*
X70248727Y-21327189D01*
X70251343Y-21341781D01*
X70263777Y-21345200D01*
X71527085Y-21345200D01*
X71542324Y-21340725D01*
X71543529Y-21339335D01*
X71545200Y-21331652D01*
X71545200Y-20914116D01*
X71540725Y-20898877D01*
X71539335Y-20897672D01*
X71531652Y-20896001D01*
X70705708Y-20896001D01*
X70698890Y-20896370D01*
X70648518Y-20901841D01*
X70633259Y-20905470D01*
X70513882Y-20950222D01*
X70498296Y-20958754D01*
X70397133Y-21034572D01*
X70384572Y-21047133D01*
X70308754Y-21148296D01*
X70300222Y-21163882D01*
X70255467Y-21283265D01*
X70251842Y-21298511D01*
X70248727Y-21327189D01*
X23751273Y-21327189D01*
X23748159Y-21298518D01*
X23744530Y-21283259D01*
X23699778Y-21163882D01*
X23691246Y-21148296D01*
X23615428Y-21047133D01*
X23602867Y-21034572D01*
X23501704Y-20958754D01*
X23486118Y-20950222D01*
X23366735Y-20905467D01*
X23351490Y-20901842D01*
X23301108Y-20896369D01*
X23294294Y-20896000D01*
X22472915Y-20896000D01*
X22457676Y-20900475D01*
X22456471Y-20901865D01*
X22454800Y-20909548D01*
X22454800Y-21327085D01*
X21845200Y-21327085D01*
X21845200Y-20914116D01*
X21840725Y-20898877D01*
X21839335Y-20897672D01*
X21831652Y-20896001D01*
X21005708Y-20896001D01*
X20998890Y-20896370D01*
X20948518Y-20901841D01*
X20933259Y-20905470D01*
X20813882Y-20950222D01*
X20798296Y-20958754D01*
X20710285Y-21024715D01*
X20643778Y-21049563D01*
X20574396Y-21034510D01*
X20524166Y-20984336D01*
X20508720Y-20923799D01*
X20509376Y-20005473D01*
X20509991Y-19993129D01*
X20527493Y-19816640D01*
X20532325Y-19792428D01*
X20582098Y-19628690D01*
X20591558Y-19605886D01*
X20672305Y-19454997D01*
X20686031Y-19434474D01*
X20794654Y-19302225D01*
X20812118Y-19284774D01*
X20944442Y-19176247D01*
X20964973Y-19162537D01*
X21115921Y-19081897D01*
X21138732Y-19072453D01*
X21302504Y-19022797D01*
X21326720Y-19017982D01*
X21503224Y-19000606D01*
X21515568Y-19000000D01*
X72494171Y-19000000D01*
X72506518Y-19000606D01*
G37*
%TD.AperFunction*%
%TD*%
M02*
